<svg version="1.1" id="Layer_1" xmlns="http://www.w3.org/2000/svg"
xmlns:xlink="http://www.w3.org/1999/xlink" width="150" height="100" x="0px" y="0px" viewBox="0 0 103.6 64.6" style="enable-background:new 0 0 103.6 64.6;" xml:space="preserve">
    <style type="text/css">.svg-2{fill:#1469eb}.st1{fill:#d1d1d1}.st2{fill:#14e2a4}.st3{fill:none;stroke:#14e2a4;stroke-linecap:round;stroke-miterlimit:10}</style>
    <g id="Layer_2_1_">
        <g id="Layer_1-2">
            <g id="Layer_2-2">
                <g id="Layer_1-2-2">
                    <path class="svg-2" d="M80.2,15.4c-0.1,0-0.2,0-0.2-0.1c-0.4-0.5-0.9-1-1.4-1.5C76.4,11.6,74,9,74,6.4C73.9,3,76.5,0.1,79.8,0
					s6.2,2.5,6.3,5.8c0,0.2,0,0.3,0,0.5c0,2.9-2.4,5.3-4.5,7.4c-0.5,0.5-1,1-1.4,1.5C80.3,15.3,80.3,15.4,80.2,15.4z M80.2,0.7
					c-3.1,0-5.7,2.5-5.7,5.6c0,0,0,0,0,0l0,0c0,2.5,2.3,5,4.4,7.1c0.4,0.5,0.9,0.9,1.3,1.4c0.4-0.4,0.8-0.9,1.3-1.3
					c2-2.1,4.3-4.4,4.3-7.1C85.8,3.2,83.3,0.7,80.2,0.7L80.2,0.7z"></path>
                    <path class="st1" d="M81.6,5.9c-0.1,0-0.3,0-0.4-0.1c-0.1,0-0.2-0.1-0.3-0.2c-0.1,0.1-0.2,0.1-0.3,0.2c-0.3,0.1-0.6,0.1-0.8,0
					c-0.1,0-0.2-0.1-0.3-0.2c-0.1,0.1-0.2,0.1-0.3,0.2c-0.3,0.1-0.6,0.1-0.8,0c-0.1,0-0.2-0.1-0.3-0.2c-0.1,0.1-0.2,0.1-0.3,0.2
					h-0.1c-0.2,0.1-0.5,0.1-0.7,0l-0.2-0.1c-0.3-0.2-0.4-0.5-0.4-0.8V4.4c0-0.1,0-0.1,0.1-0.2L77.2,3c0.1-0.1,0.2-0.2,0.3-0.2h5.4
					c0.1,0,0.2,0.1,0.3,0.2L84,4.2c0,0.1,0,0.1,0,0.2v0.5c0,0.3-0.2,0.6-0.4,0.8c-0.1,0.1-0.2,0.1-0.3,0c-0.1-0.1-0.1-0.2,0-0.2l0,0
					c0.2-0.1,0.3-0.3,0.3-0.5V4.4l-0.8-1.2h-5.4l-0.8,1.2l0,0v0.5c0,0.2,0.1,0.4,0.3,0.5l0.1,0.1c0.2,0,0.3,0,0.5,0h0.1
					c0.1,0,0.2-0.1,0.3-0.2c0,0,0.1,0,0.2,0c0,0,0.1,0,0.1,0c0.1,0.1,0.2,0.2,0.3,0.2c0.2,0.1,0.4,0.1,0.6,0c0.1,0,0.2-0.1,0.3-0.2
					c0,0,0.1,0,0.2,0c0,0,0.1,0,0.1,0c0.1,0.1,0.2,0.2,0.3,0.2c0.2,0.1,0.4,0.1,0.6,0c0.1,0,0.2-0.1,0.3-0.2c0,0,0.1,0,0.1,0
					c0,0,0.1,0,0.2,0c0.1,0.1,0.2,0.2,0.3,0.2c0.2,0.1,0.4,0.1,0.6,0c0.1,0,0.2-0.1,0.3-0.2c0,0,0.1,0,0.1,0c0,0,0.1,0,0.2,0
					c0.1,0.1,0.2,0.2,0.3,0.2h0.1c0.1,0,0.2,0.1,0.2,0.2c0,0.1-0.1,0.2-0.2,0.1l0,0h-0.2c-0.1,0-0.2-0.1-0.3-0.2
					c-0.1,0.1-0.2,0.1-0.3,0.2C81.9,5.9,81.7,5.9,81.6,5.9z"></path>
                    <path class="st2" d="M79.6,8c0,0-0.1,0-0.1,0c-0.1-0.1-0.1-0.2,0-0.3L81,6.3c0.1-0.1,0.2-0.1,0.3,0c0,0.1,0,0.2,0,0.2L79.7,8
					C79.7,8,79.6,8,79.6,8z"></path>
                    <path class="st2" d="M81.1,7.8c0,0-0.1,0-0.1-0.1c-0.1-0.1-0.1-0.2,0-0.3l0.8-0.7c0.1-0.1,0.2-0.1,0.3,0c0,0,0,0,0,0
					c0.1,0.1,0.1,0.2,0,0.3l-0.8,0.7C81.2,7.8,81.2,7.8,81.1,7.8z"></path>
                    <path class="st2" d="M78.8,7.4c-0.1,0-0.1,0-0.1-0.1c-0.1-0.1-0.1-0.2,0-0.3l1-0.9c0.1-0.1,0.2-0.1,0.3,0l0,0
					c0.1,0.1,0.1,0.2,0,0.3l-1,0.9C78.9,7.4,78.9,7.4,78.8,7.4z"></path>
                    <path class="st2" d="M77.9,8.8h4.6c0.3,0,0.5-0.2,0.5-0.5l0,0V5.9h-0.4v2.4c0,0.1,0,0.1-0.1,0.1c0,0,0,0,0,0h-4.6
					c-0.1,0-0.1-0.1-0.1-0.1V5.8h-0.4v2.4C77.4,8.5,77.6,8.7,77.9,8.8z"></path>
                    <path class="svg-2" d="M84,4.2L83.2,3c-0.1-0.1-0.2-0.2-0.3-0.2h-5.5c-0.1,0-0.2,0.1-0.3,0.2l-0.8,1.2c0,0.1-0.1,0.1-0.1,0.2v0.5
					c0,0.3,0.1,0.6,0.3,0.8v3.6c0,0.1,0.1,0.2,0.2,0.2h6.6c0.1,0,0.2-0.1,0.2-0.2V5.7C83.9,5.5,84,5.2,84,4.9V4.4
					C84,4.3,84,4.3,84,4.2z M83.4,5.4l-0.1,0.1c-0.1,0-0.3,0-0.4,0h-0.1c-0.1,0-0.2-0.1-0.3-0.2c0,0-0.1,0-0.2,0
					c-0.1,0-0.1,0-0.1,0.1c-0.1,0.1-0.2,0.2-0.3,0.2c-0.2,0.1-0.4,0.1-0.6,0c-0.1-0.1-0.2-0.2-0.3-0.3c0,0-0.1,0-0.2,0
					c-0.1,0-0.1,0-0.1,0.1c-0.1,0.1-0.2,0.2-0.3,0.2c-0.2,0.1-0.4,0.1-0.6,0c-0.1-0.1-0.2-0.2-0.3-0.3c0,0-0.1,0-0.1,0
					c-0.1,0-0.1,0-0.2,0.1c-0.1,0.1-0.2,0.2-0.3,0.2c-0.2,0.1-0.4,0.1-0.6,0c-0.1-0.1-0.2-0.2-0.3-0.3c0,0-0.1,0-0.1,0
					c-0.1,0-0.1,0-0.2,0.1c-0.1,0.1-0.2,0.2-0.3,0.2h-0.1c-0.2,0-0.3,0-0.5,0l-0.1-0.1c-0.2-0.1-0.3-0.3-0.3-0.5V4.6h6.9v0.3
					C83.6,5.1,83.5,5.3,83.4,5.4L83.4,5.4z M77.4,3.2h5.4l0.7,1.1h-6.8L77.4,3.2z M77,9.1V5.9c0.2,0.1,0.4,0.1,0.6,0h0.1
					c0.1,0,0.2-0.1,0.3-0.2c0.1,0.1,0.2,0.1,0.3,0.2c0.3,0.1,0.6,0.1,0.8,0c0.1,0,0.2-0.1,0.3-0.2c0.1,0.1,0.2,0.1,0.3,0.2
					C80,6,80.2,6,80.5,5.9c0.1,0,0.2-0.1,0.3-0.2c0.1,0.1,0.2,0.1,0.3,0.2c0.1,0,0.3,0.1,0.4,0.1c0.2,0,0.3,0,0.5-0.1
					c0.1,0,0.2-0.1,0.3-0.2c0.1,0.1,0.2,0.1,0.3,0.2h0.2c0.1,0,0.1,0,0.2,0c0.1,0,0.2,0,0.3,0v3.2H77z"></path>
                    <path class="svg-2" d="M80.2,64.6c-0.1,0-0.1,0-0.2-0.1c-0.4-0.5-0.9-1-1.4-1.5c-2.1-2.2-4.6-4.7-4.6-7.4c0.1-3.4,3-6,6.3-5.8
					c3.2,0.1,5.7,2.7,5.8,5.8c0,2.9-2.4,5.3-4.5,7.5c-0.5,0.5-1,1-1.4,1.5C80.3,64.6,80.3,64.6,80.2,64.6z M80.2,49.9
					c-3.1,0-5.7,2.5-5.7,5.7c0,2.5,2.3,5,4.4,7.1c0.4,0.5,0.9,0.9,1.3,1.3c0.4-0.4,0.8-0.9,1.3-1.3c2-2.1,4.3-4.5,4.3-7.1
					C85.9,52.4,83.3,49.9,80.2,49.9C80.2,49.9,80.2,49.9,80.2,49.9L80.2,49.9L80.2,49.9z"></path>
                    <path class="st1" d="M81.6,55.1c-0.1,0-0.3,0-0.4-0.1c-0.1,0-0.2-0.1-0.3-0.2c-0.1,0.1-0.2,0.1-0.3,0.2c-0.3,0.1-0.6,0.1-0.8,0
					c-0.1,0-0.2-0.1-0.3-0.2c-0.1,0.1-0.2,0.1-0.3,0.2c-0.3,0.1-0.6,0.1-0.8,0c-0.1,0-0.2-0.1-0.3-0.2C78,54.9,77.9,55,77.8,55h-0.1
					c-0.2,0-0.4,0-0.6,0l-0.2-0.1c-0.3-0.2-0.4-0.5-0.4-0.8v-0.5c0-0.1,0-0.1,0.1-0.2l0.8-1.2c0.1-0.1,0.2-0.2,0.3-0.2h5.4
					c0.1,0,0.2,0.1,0.3,0.2l0.8,1.3c0,0.1,0,0.1,0,0.2v0.5c0,0.3-0.2,0.6-0.4,0.8c-0.1,0.1-0.2,0.1-0.3,0c-0.1-0.1-0.1-0.2,0-0.3
					l0,0c0.2-0.1,0.3-0.3,0.3-0.5v-0.5l-0.8-1.2h-5.4l-0.8,1.2l0,0v0.5c0,0.2,0.1,0.4,0.3,0.5l0.1,0.1c0.2,0,0.3,0,0.5,0h0.1
					c0.1,0,0.2-0.1,0.3-0.2c0,0,0.1-0.1,0.2-0.1c0.1,0,0.1,0,0.1,0.1c0.1,0.1,0.2,0.2,0.3,0.2c0.2,0.1,0.4,0.1,0.6,0
					c0.1,0,0.2-0.1,0.3-0.2c0,0,0.1-0.1,0.2-0.1c0.1,0,0.1,0,0.1,0.1c0.1,0.1,0.2,0.2,0.3,0.2c0.2,0.1,0.4,0.1,0.6,0
					c0.1,0,0.2-0.1,0.3-0.2c0-0.1,0.1-0.1,0.1-0.1c0.1,0,0.1,0,0.2,0.1c0.1,0.1,0.2,0.1,0.3,0.2c0.2,0.1,0.4,0.1,0.6,0
					c0.1,0,0.2-0.1,0.3-0.2c0-0.1,0.1-0.1,0.1-0.1c0.1,0,0.1,0,0.2,0.1c0.1,0.1,0.2,0.2,0.3,0.2h0.1c0.1,0,0.2,0.1,0.2,0.2
					c0,0.1-0.1,0.2-0.2,0.2l-0.2,0c-0.1,0-0.2-0.1-0.3-0.2C82.2,54.9,82.1,55,82,55C81.9,55.1,81.7,55.1,81.6,55.1z"></path>
                    <path class="st2" d="M79.6,57.2c-0.1,0-0.1,0-0.1-0.1c-0.1-0.1-0.1-0.2,0-0.3l1.6-1.4c0.1-0.1,0.2-0.1,0.3,0c0,0,0,0,0,0
					c0.1,0.1,0.1,0.2,0,0.3l-1.6,1.5C79.7,57.2,79.6,57.2,79.6,57.2z"></path>
                    <path class="st2" d="M81.1,57c0,0-0.1,0-0.1,0c-0.1-0.1-0.1-0.2,0-0.3l0.8-0.7c0.1,0,0.2,0,0.2,0.1c0,0,0,0,0,0c0,0,0,0.1,0,0.1
					L81.2,57C81.2,57,81.2,57,81.1,57z"></path>
                    <path class="st2" d="M78.8,56.6c-0.1,0-0.1,0-0.1-0.1c-0.1-0.1-0.1-0.2,0-0.3l1-0.9c0.1-0.1,0.2-0.1,0.3,0c0,0,0,0,0,0
					c0.1,0.1,0.1,0.2,0,0.3l-1,0.9L78.8,56.6z"></path>
                    <path class="st2" d="M77.9,58h4.6c0.3,0,0.5-0.2,0.5-0.5v-2.4h-0.4v2.4c0,0.1,0,0.1-0.1,0.1c0,0,0,0,0,0h-4.6
					c-0.1,0-0.1-0.1-0.1-0.1V55h-0.4v2.3C77.4,57.6,77.6,57.9,77.9,58L77.9,58z"></path>
                    <path class="svg-2" d="M84,53.4l-0.8-1.2C83.2,52.1,83,52,82.9,52h-5.5c-0.1,0-0.2,0.1-0.3,0.2l-0.8,1.2c0,0.1-0.1,0.1-0.1,0.2
					v0.5c0,0.3,0.1,0.6,0.3,0.8v3.6c0,0.1,0.1,0.2,0.2,0.2l0,0h6.6c0.1,0,0.2-0.1,0.2-0.2l0,0l0,0v-3.6c0.2-0.2,0.4-0.5,0.3-0.8
					v-0.5C84,53.5,84,53.5,84,53.4z M83.4,54.6l-0.1,0.1c-0.1,0-0.3,0-0.4,0h-0.1c-0.1,0-0.2-0.1-0.3-0.2c0,0-0.1-0.1-0.2-0.1
					c-0.1,0-0.1,0-0.1,0.1c-0.1,0.1-0.2,0.2-0.3,0.2c-0.2,0.1-0.4,0.1-0.6,0c-0.1,0-0.2-0.1-0.3-0.2c0,0-0.1-0.1-0.2-0.1
					c-0.1,0-0.1,0-0.1,0.1c-0.1,0.1-0.2,0.1-0.3,0.2c-0.2,0.1-0.4,0.1-0.6,0c-0.1,0-0.2-0.1-0.3-0.2c0,0-0.1-0.1-0.1-0.1
					c-0.1,0-0.1,0-0.2,0.1c-0.1,0.1-0.2,0.1-0.3,0.2c-0.2,0.1-0.4,0.1-0.6,0c-0.1,0-0.2-0.1-0.3-0.2c0-0.1-0.1-0.1-0.1-0.1
					c-0.1,0-0.1,0-0.2,0.1c-0.1,0.1-0.2,0.2-0.3,0.2h-0.1c-0.2,0-0.3,0-0.5,0L77,54.6c-0.2-0.1-0.3-0.3-0.3-0.5v-0.3h7v0.3
					C83.7,54.3,83.6,54.5,83.4,54.6L83.4,54.6z M77.5,52.4h5.4l0.7,1.1h-6.8L77.5,52.4z M77,58.3v-3.2c0.2,0.1,0.4,0.1,0.6,0h0.1
					c0.1,0,0.2-0.1,0.3-0.2c0.1,0.1,0.2,0.1,0.3,0.2c0.3,0.1,0.6,0.1,0.8,0c0.1,0,0.2-0.1,0.3-0.2c0.1,0.1,0.2,0.1,0.3,0.2
					c0.3,0.1,0.6,0.1,0.8,0c0.1,0,0.2-0.1,0.3-0.2c0.1,0.1,0.2,0.1,0.3,0.2c0.3,0.1,0.6,0.1,0.8,0c0.1,0,0.2-0.1,0.3-0.2
					c0.1,0.1,0.2,0.1,0.3,0.2h0.2h0.6v3.2L77,58.3z"></path>
                    <path class="svg-2" d="M89.2,52.5c-0.1,0-0.1,0-0.2-0.1c-0.4-0.5-0.9-1-1.4-1.5c-2.1-2.2-4.6-4.7-4.6-7.4c0.1-3.4,3-6,6.3-5.8
					c3.2,0.1,5.7,2.7,5.8,5.8c0,2.9-2.4,5.3-4.5,7.5c-0.5,0.5-1,1-1.4,1.5C89.4,52.5,89.3,52.5,89.2,52.5z M89.2,37.9
					c-3.1,0-5.7,2.5-5.7,5.7l0,0l0,0c0,2.5,2.3,5,4.4,7.1c0.4,0.5,0.9,0.9,1.3,1.3c0.4-0.4,0.8-0.9,1.3-1.3c2-2.1,4.3-4.5,4.3-7.1
					C94.8,40.4,92.3,37.9,89.2,37.9z"></path>
                    <path class="st1" d="M90.6,43.1c-0.1,0-0.3,0-0.4-0.1c-0.1,0-0.2-0.1-0.3-0.2c-0.1,0.1-0.2,0.1-0.3,0.2c-0.3,0.1-0.6,0.1-0.8,0
					c-0.1,0-0.2-0.1-0.3-0.2c-0.1,0.1-0.2,0.1-0.3,0.2c-0.3,0.1-0.6,0.1-0.8,0c-0.1,0-0.2-0.1-0.3-0.2c-0.1,0.1-0.2,0.1-0.3,0.2
					h-0.1c-0.2,0.1-0.4,0.1-0.7,0l-0.2-0.1c-0.3-0.2-0.4-0.5-0.4-0.8v-0.5c0-0.1,0-0.1,0.1-0.2l0.8-1.2c0.1-0.1,0.2-0.2,0.3-0.2h5.4
					c0.1,0,0.2,0.1,0.3,0.2l0.8,1.2c0,0.1,0.1,0.1,0.1,0.2V42c0,0.3-0.2,0.6-0.4,0.8c-0.1,0.1-0.2,0.1-0.3,0c-0.1-0.1,0-0.2,0.1-0.3
					c0.2-0.1,0.3-0.3,0.3-0.5v-0.5l-0.8-1.3h-5.4l-0.8,1.2l0,0V42c0,0.2,0.1,0.4,0.3,0.5l0.1,0.1c0.2,0,0.3,0,0.5,0h0.1
					c0.1,0,0.2-0.1,0.3-0.2c0,0,0.1-0.1,0.1-0.1c0.1,0,0.1,0,0.2,0.1c0.1,0.1,0.2,0.1,0.3,0.2c0.2,0.1,0.4,0.1,0.6,0
					c0.1,0,0.2-0.1,0.3-0.2c0-0.1,0.1-0.1,0.1-0.1c0.1,0,0.1,0,0.2,0.1c0.1,0.1,0.2,0.1,0.3,0.2c0.2,0.1,0.4,0.1,0.6,0
					c0.1,0,0.2-0.1,0.3-0.2c0-0.1,0.1-0.1,0.1-0.1c0.1,0,0.1,0,0.2,0.1c0.1,0.1,0.2,0.2,0.3,0.2c0.3,0.1,0.6,0,0.8-0.2
					c0.1-0.1,0.2-0.1,0.3,0l0,0c0.1,0.1,0.2,0.1,0.3,0.2h0.1c0.1,0,0.2,0.1,0.2,0.2c0,0,0,0,0,0c0,0.1-0.1,0.2-0.2,0.2h-0.2
					c-0.1,0-0.2-0.1-0.3-0.2c-0.1,0.1-0.2,0.2-0.3,0.2C90.9,43,90.7,43.1,90.6,43.1z"></path>
                    <path class="st2" d="M88.6,45.2c-0.1,0-0.1,0-0.1-0.1c-0.1-0.1-0.1-0.2,0-0.3l0,0l1.6-1.4c0.1-0.1,0.2-0.1,0.3,0c0,0,0,0,0,0
					c0.1,0.1,0.1,0.2,0,0.3l-1.6,1.4C88.7,45.1,88.6,45.2,88.6,45.2z"></path>
                    <path class="st2" d="M90.1,45c-0.1,0-0.1,0-0.1-0.1c-0.1-0.1-0.1-0.2,0-0.3l0,0l0.8-0.7c0.1-0.1,0.2,0,0.2,0
					c0.1,0.1,0.1,0.2,0,0.3c0,0,0,0,0,0L90.3,45L90.1,45z"></path>
                    <path class="st2" d="M87.8,44.6c-0.1,0-0.1,0-0.1-0.1c-0.1-0.1-0.1-0.2,0-0.3l0,0l1-0.9c0.1-0.1,0.2-0.1,0.3,0
					c0.1,0.1,0.1,0.2,0,0.3l0,0l-1,0.9C88,44.5,87.9,44.6,87.8,44.6z"></path>
                    <path class="st2" d="M86.9,45.9h4.6c0.3,0,0.5-0.2,0.5-0.5v-2.3h-0.4v2.4c0,0.1-0.1,0.1-0.1,0.1h-4.6c-0.1,0-0.1-0.1-0.1-0.1
					l0,0l0,0V43h-0.4v2.3C86.4,45.6,86.6,45.9,86.9,45.9L86.9,45.9z"></path>
                    <path class="svg-2" d="M93,41.3l-0.8-1.2c-0.1-0.1-0.2-0.2-0.3-0.2h-5.5c-0.1,0-0.2,0.1-0.3,0.2l-0.8,1.2c0,0.1-0.1,0.1-0.1,0.2
					V42c0,0.3,0.1,0.6,0.3,0.8v3.6c0,0.1,0.1,0.2,0.2,0.2h6.6c0.1,0,0.2-0.1,0.2-0.2l0,0l0,0v-3.5c0.2-0.2,0.3-0.5,0.3-0.8v-0.5
					C93,41.4,93,41.4,93,41.3z M92.4,42.6l-0.1,0.1c-0.1,0-0.3,0-0.4,0h-0.1c-0.1,0-0.2-0.1-0.3-0.2c-0.1-0.1-0.2-0.1-0.2,0l0,0
					c-0.2,0.2-0.5,0.3-0.8,0.2c-0.1,0-0.2-0.1-0.3-0.2c0,0-0.1-0.1-0.2-0.1c-0.1,0-0.1,0-0.1,0.1c-0.1,0.1-0.2,0.2-0.3,0.2
					c-0.2,0.1-0.4,0.1-0.6,0c-0.1,0-0.2-0.1-0.3-0.2c0,0-0.1-0.1-0.2-0.1c-0.1,0-0.1,0-0.1,0.1c-0.1,0.1-0.2,0.2-0.3,0.2
					c-0.2,0.1-0.4,0.1-0.6,0c-0.1,0-0.2-0.1-0.3-0.2c0,0-0.1-0.1-0.2-0.1c-0.1,0-0.1,0-0.1,0.1c-0.1,0.1-0.2,0.1-0.3,0.2h-0.1
					c-0.2,0-0.3,0-0.5,0L86,42.6c-0.2-0.1-0.3-0.3-0.3-0.5v-0.3h7V42C92.7,42.2,92.6,42.4,92.4,42.6L92.4,42.6z M86.4,40.3h5.4
					l0.7,1.1h-6.7L86.4,40.3z M86,46.2V43c0.2,0.1,0.4,0.1,0.6,0h0.1c0.1,0,0.2-0.1,0.3-0.2c0.1,0.1,0.2,0.1,0.3,0.2
					c0.3,0.1,0.6,0.1,0.8,0c0.1,0,0.2-0.1,0.3-0.2c0.1,0.1,0.2,0.1,0.3,0.2c0.3,0.1,0.6,0.1,0.8,0c0.1,0,0.2-0.1,0.3-0.2
					c0.1,0.1,0.2,0.1,0.3,0.2c0.3,0.1,0.6,0.1,0.9,0c0.1,0,0.2-0.1,0.3-0.2c0.1,0.1,0.2,0.1,0.3,0.2H92c0.1,0,0.2,0,0.3,0v3.2
					L86,46.2z"></path>
                    <path class="svg-2" d="M89.2,27.6c-0.1,0-0.1,0-0.2-0.1c-0.4-0.5-0.9-1-1.4-1.5c-2.1-2.2-4.6-4.7-4.6-7.4c0.1-3.4,3-6,6.3-5.8
					c3.2,0.1,5.7,2.7,5.8,5.8c0,2.9-2.4,5.3-4.5,7.4c-0.5,0.5-1,1-1.4,1.5C89.4,27.5,89.3,27.5,89.2,27.6z M89.2,12.9
					c-3.1,0-5.7,2.5-5.7,5.6l0,0l0,0c0,2.5,2.3,5,4.4,7.1c0.4,0.5,0.9,0.9,1.3,1.4c0.4-0.4,0.8-0.9,1.3-1.3c2-2.1,4.3-4.5,4.3-7.1
					C94.8,15.4,92.3,12.9,89.2,12.9z"></path>
                    <path class="st1" d="M90.6,18.1c-0.1,0-0.3,0-0.4-0.1c-0.1,0-0.2-0.1-0.3-0.2c-0.1,0.1-0.2,0.1-0.3,0.2c-0.3,0.1-0.6,0.1-0.8,0
					c-0.1,0-0.2-0.1-0.3-0.2c-0.1,0.1-0.2,0.1-0.3,0.2c-0.3,0.1-0.6,0.1-0.8,0c-0.1,0-0.2-0.1-0.3-0.2C87,17.9,86.9,18,86.8,18h-0.1
					c-0.2,0.1-0.5,0-0.7,0l-0.2-0.1c-0.3-0.2-0.4-0.5-0.4-0.8v-0.5c0-0.1,0-0.1,0.1-0.2l0.8-1.2c0.1-0.1,0.2-0.2,0.3-0.2h5.4
					c0.1,0,0.2,0.1,0.3,0.2l0.8,1.2c0,0.1,0.1,0.1,0.1,0.2v0.5c0,0.3-0.2,0.6-0.4,0.8c-0.1,0.1-0.2,0.1-0.3,0
					c-0.1-0.1,0-0.2,0.1-0.3c0.2-0.1,0.3-0.3,0.3-0.5v-0.5l-0.8-1.2h-5.4l-0.8,1.2l0,0v0.5c0,0.2,0.1,0.4,0.3,0.5l0.1,0.1
					c0.2,0,0.3,0,0.5,0h0.1c0.1,0,0.2-0.1,0.3-0.2c0,0,0.1-0.1,0.1-0.1c0.1,0,0.1,0,0.2,0.1c0.1,0.1,0.2,0.1,0.3,0.2
					c0.2,0.1,0.4,0.1,0.6,0c0.1,0,0.2-0.1,0.3-0.2c0-0.1,0.1-0.1,0.1-0.1c0.1,0,0.1,0,0.2,0.1c0.1,0.1,0.2,0.1,0.3,0.2
					c0.2,0.1,0.4,0.1,0.6,0c0.1,0,0.2-0.1,0.3-0.2c0-0.1,0.1-0.1,0.1-0.1c0.1,0,0.1,0,0.2,0.1c0.1,0.1,0.2,0.2,0.3,0.2
					c0.3,0.1,0.6,0,0.8-0.2c0.1-0.1,0.2-0.1,0.2,0v0c0.1,0.1,0.2,0.1,0.3,0.2h0.1c0.1,0,0.2,0.1,0.2,0.2c0,0,0,0,0,0
					c0,0.1-0.1,0.2-0.2,0.1l-0.2,0c-0.1,0-0.2-0.1-0.3-0.2C91.2,17.9,91.1,18,91,18C90.9,18,90.7,18.1,90.6,18.1z"></path>
                    <path class="st2" d="M88.6,20.2c-0.1,0-0.1,0-0.1-0.1c-0.1-0.1-0.1-0.2,0-0.3l0,0l1.6-1.4c0.1-0.1,0.2-0.1,0.3,0c0,0,0,0,0,0
					c0.1,0.1,0.1,0.2,0,0.3l-1.6,1.4C88.7,20.2,88.6,20.2,88.6,20.2z"></path>
                    <path class="st2" d="M90.1,20c0,0-0.1,0-0.1,0c-0.1-0.1-0.1-0.2,0-0.3l0,0l0.8-0.7c0.1-0.1,0.2-0.1,0.2,0c0.1,0.1,0.1,0.2,0,0.3
					l-0.8,0.7L90.1,20z"></path>
                    <path class="st2" d="M87.8,19.6c-0.1,0-0.1,0-0.1-0.1c-0.1-0.1-0.1-0.2,0-0.2l0,0l1-0.9c0.1-0.1,0.2-0.1,0.3,0
					c0.1,0.1,0.1,0.2,0,0.3l0,0L88,19.5C88,19.6,87.9,19.6,87.8,19.6z"></path>
                    <path class="st2" d="M86.9,20.9h4.6c0.3,0,0.5-0.2,0.5-0.5v-2.3h-0.4v2.4c0,0.1-0.1,0.1-0.1,0.1h-4.6c-0.1,0-0.1-0.1-0.1-0.1
					c0,0,0,0,0,0l0,0V18h-0.4v2.3C86.4,20.6,86.6,20.9,86.9,20.9L86.9,20.9z"></path>
                    <path class="svg-2" d="M93,16.4l-0.8-1.2C92.2,15,92,15,91.9,15h-5.5c-0.1,0-0.2,0.1-0.3,0.2l-0.8,1.2c0,0.1-0.1,0.1-0.1,0.2v0.5
					c0,0.3,0.1,0.6,0.3,0.8v3.6c0,0.1,0.1,0.2,0.2,0.2h6.6c0.1,0,0.2-0.1,0.2-0.2l0,0l0,0v-3.6c0.2-0.2,0.4-0.5,0.3-0.8v-0.5
					C93,16.5,93,16.4,93,16.4z M92.4,17.6l-0.1,0.1c-0.1,0-0.3,0-0.4,0h-0.1c-0.1,0-0.2-0.1-0.3-0.2c-0.1-0.1-0.2-0.1-0.2,0l0,0
					c-0.2,0.2-0.5,0.3-0.8,0.2c-0.1,0-0.2-0.1-0.3-0.2c0,0-0.1-0.1-0.2-0.1c-0.1,0-0.1,0-0.1,0.1c-0.1,0.1-0.2,0.2-0.3,0.2
					c-0.2,0.1-0.4,0.1-0.6,0c-0.1,0-0.2-0.1-0.3-0.2c0,0-0.1-0.1-0.2-0.1c-0.1,0-0.1,0-0.1,0.1c-0.1,0.1-0.2,0.2-0.3,0.2
					c-0.2,0.1-0.4,0.1-0.6,0c-0.1,0-0.2-0.1-0.3-0.2c0,0-0.1-0.1-0.2-0.1c-0.1,0-0.1,0-0.1,0.1c-0.1,0.1-0.2,0.1-0.3,0.2h-0.1
					c-0.2,0-0.3,0-0.5,0L86,17.6c-0.2-0.1-0.3-0.3-0.3-0.5v-0.3h7v0.3C92.7,17.3,92.6,17.5,92.4,17.6L92.4,17.6z M86.5,15.3h5.4
					l0.7,1.1h-6.8L86.5,15.3z M86.1,21.3V18c0.2,0.1,0.4,0.1,0.6,0h0.1c0.1,0,0.2-0.1,0.3-0.2c0.1,0.1,0.2,0.1,0.3,0.2
					c0.3,0.1,0.6,0.1,0.8,0c0.1,0,0.2-0.1,0.3-0.2c0.1,0.1,0.2,0.1,0.3,0.2c0.3,0.1,0.6,0.1,0.8,0c0.1,0,0.2-0.1,0.3-0.2
					c0.1,0.1,0.2,0.1,0.3,0.2c0.3,0.1,0.6,0.1,0.8,0c0.1,0,0.2-0.1,0.3-0.2c0.1,0.1,0.2,0.1,0.3,0.2h0.2H92c0.1,0,0.2,0,0.3,0v3.3
					L86.1,21.3z"></path>
                    <path class="svg-2" d="M97.5,39.6c-0.1,0-0.1,0-0.2-0.1c-0.4-0.5-0.9-1-1.4-1.5c-2.1-2.2-4.6-4.7-4.6-7.4
					c-0.1-3.4,2.5-6.2,5.8-6.3s6.2,2.5,6.3,5.8l0,0c0,0.2,0,0.3,0,0.5c0,2.9-2.4,5.3-4.5,7.4c-0.5,0.5-1,1-1.4,1.5
					C97.6,39.6,97.6,39.6,97.5,39.6z M97.4,24.9c-3.1,0-5.7,2.5-5.7,5.6c0,0,0,0,0,0c0,2.5,2.3,5,4.4,7.1c0.4,0.5,0.9,0.9,1.3,1.3
					c0.4-0.4,0.8-0.9,1.3-1.3c2-2.1,4.3-4.5,4.3-7.1C103.1,27.5,100.6,24.9,97.4,24.9z"></path>
                    <path class="st1" d="M98.8,30.1c-0.1,0-0.3,0-0.4-0.1c-0.1,0-0.2-0.1-0.3-0.2C98.1,30,98,30,97.8,30.1c-0.3,0.1-0.6,0.1-0.8,0
					c-0.1,0-0.2-0.1-0.3-0.2c-0.1,0.1-0.2,0.1-0.3,0.2c-0.3,0.1-0.6,0.1-0.8,0c-0.1,0-0.2-0.1-0.3-0.2c-0.1,0.1-0.2,0.1-0.3,0.2
					h-0.1c-0.2,0.1-0.5,0.1-0.7,0c-0.1,0-0.2,0-0.2-0.1c-0.3-0.2-0.4-0.5-0.4-0.8v-0.5c0-0.1,0-0.1,0.1-0.2l0.8-1.2
					c0.1-0.1,0.2-0.2,0.3-0.2h5.4c0.1,0,0.2,0.1,0.3,0.2l0.8,1.2c0,0.1,0.1,0.1,0.1,0.2v0.5c0,0.3-0.2,0.6-0.4,0.8
					c-0.1,0.1-0.2,0-0.3,0c-0.1-0.1-0.1-0.2,0-0.3c0.2-0.1,0.3-0.3,0.3-0.5v-0.5l-0.8-1.2h-5.4L94,28.6l0,0v0.5
					c0,0.3,0.1,0.5,0.4,0.6c0.2,0,0.3,0,0.5,0H95c0.1,0,0.2-0.1,0.3-0.2c0,0,0.1-0.1,0.1-0.1c0.1,0,0.1,0,0.2,0.1
					c0.1,0.1,0.2,0.2,0.3,0.2c0.2,0.1,0.4,0.1,0.6,0c0.1,0,0.2-0.1,0.3-0.2c0,0,0.1-0.1,0.1-0.1c0.1,0,0.1,0,0.2,0.1
					c0.1,0.1,0.2,0.2,0.3,0.2c0.2,0.1,0.4,0.1,0.6,0c0.1,0,0.2-0.1,0.3-0.2c0,0,0.1-0.1,0.1-0.1c0.1,0,0.1,0,0.2,0.1
					c0.1,0.1,0.2,0.2,0.3,0.2c0.2,0.1,0.4,0.1,0.6,0c0.1,0,0.2-0.1,0.3-0.2c0.1-0.1,0.2-0.1,0.2,0v0c0.1,0.1,0.2,0.2,0.3,0.2h0.1
					c0.1,0,0.2,0.1,0.1,0.2c0,0,0,0,0,0c0,0.1-0.1,0.2-0.2,0.1l0,0L99.9,30c-0.1,0-0.2-0.1-0.3-0.2c-0.1,0.1-0.2,0.1-0.3,0.2
					C99.1,30.1,99,30.1,98.8,30.1z"></path>
                    <path class="st2" d="M96.9,32.3c-0.1,0-0.1,0-0.1-0.1c-0.1-0.1-0.1-0.2,0-0.3l0,0l1.6-1.4c0.1-0.1,0.2-0.1,0.3,0l0,0
					c0.1,0.1,0.1,0.2,0,0.3L97,32.2C97,32.2,96.9,32.3,96.9,32.3z"></path>
                    <path class="st2" d="M98.4,32.1c-0.1,0-0.1,0-0.1-0.1c-0.1-0.1-0.1-0.2,0-0.2l0,0l0.8-0.7c0.1-0.1,0.2-0.1,0.3,0
					c0.1,0.1,0.1,0.2,0,0.3L98.5,32C98.5,32,98.5,32.1,98.4,32.1z"></path>
                    <path class="st2" d="M96.1,31.6c-0.1,0-0.1,0-0.1-0.1c-0.1-0.1-0.1-0.2,0-0.3c0,0,0,0,0,0l0,0l1-0.9c0.1-0.1,0.2-0.1,0.3,0l0,0
					c0.1,0.1,0.1,0.2,0,0.3l-0.9,0.9C96.2,31.6,96.2,31.6,96.1,31.6z"></path>
                    <path class="st2" d="M95.2,33h4.6c0.3,0,0.5-0.2,0.5-0.5v-2.4h-0.4v2.4c0,0.1-0.1,0.1-0.1,0.1h-4.6c-0.1,0-0.1-0.1-0.1-0.1
					c0,0,0,0,0,0l0,0v-2.5h-0.1c-0.1,0-0.2,0-0.2,0v2.3C94.7,32.7,94.8,32.9,95.2,33L95.2,33z"></path>
                    <path class="svg-2" d="M101.2,28.4l-0.8-1.2c-0.1-0.1-0.2-0.2-0.3-0.2h-5.4c-0.1,0-0.2,0.1-0.3,0.2l-0.8,1.2
					c0,0.1-0.1,0.1-0.1,0.2v0.5c0,0.3,0.1,0.6,0.3,0.8v3.6c0,0.1,0.1,0.2,0.2,0.2h6.6c0.1,0,0.2-0.1,0.2-0.2l0,0l0,0v-3.6
					c0.2-0.2,0.4-0.5,0.3-0.8v-0.5C101.3,28.5,101.3,28.5,101.2,28.4z M100.7,29.7l-0.1,0.1c-0.1,0-0.3,0-0.4,0H100
					c-0.1,0-0.2-0.1-0.3-0.2c-0.1-0.1-0.2-0.1-0.3,0l0,0c-0.1,0.1-0.2,0.2-0.3,0.2c-0.2,0.1-0.4,0.1-0.6,0c-0.1,0-0.2-0.1-0.3-0.2
					c0,0-0.1-0.1-0.2-0.1c-0.1,0-0.1,0-0.1,0.1c-0.1,0.1-0.2,0.2-0.3,0.2c-0.2,0.1-0.4,0.1-0.6,0c-0.1,0-0.2-0.1-0.3-0.2
					c0,0-0.1-0.1-0.2-0.1c-0.1,0-0.1,0-0.1,0.1c-0.1,0.1-0.2,0.2-0.3,0.2c-0.2,0.1-0.4,0.1-0.6,0c-0.1,0-0.2-0.1-0.3-0.2
					c0,0-0.1-0.1-0.2-0.1c-0.1,0-0.1,0-0.1,0.1c-0.1,0.1-0.2,0.2-0.3,0.2h-0.1c-0.2,0-0.3,0-0.5,0c-0.3-0.1-0.4-0.3-0.4-0.6v-0.3h7
					v0.3C101,29.4,100.9,29.6,100.7,29.7z M94.7,27.4h5.4l0.7,1.1h-6.8L94.7,27.4z M94.3,33.3v-3.2c0.2,0.1,0.4,0.1,0.6,0h0.1
					c0.1,0,0.2-0.1,0.3-0.2c0.1,0.1,0.2,0.1,0.3,0.2c0.3,0.1,0.6,0.1,0.8,0c0.1,0,0.2-0.1,0.3-0.2c0.1,0.1,0.2,0.1,0.3,0.2
					c0.3,0.1,0.6,0.1,0.8,0c0.1,0,0.2-0.1,0.3-0.2c0.1,0.1,0.2,0.1,0.3,0.2c0.3,0.1,0.6,0.1,0.8,0c0.1,0,0.2-0.1,0.3-0.2
					c0.1,0.1,0.2,0.1,0.3,0.2l0.2,0.1h0.2c0.1,0,0.2,0,0.3,0v3.2L94.3,33.3z"></path>
                    <path class="st3" d="M58.2,28c8-2.5,12.2-7.5,16.9-13.8"></path>
                    <path class="st3" d="M58.3,31.9h29.4"></path>
                    <path class="st3" d="M82.6,40.3c0,0-1.9-2.3-7.1-4c-4.9-1.7-16.3-4.4-16.3-4.4"></path>
                    <path class="st3" d="M83.3,23.4c0,0-1.9,2.3-7.1,4c-4.9,1.6-16.3,4.4-16.3,4.4"></path>
                    <path class="st3" d="M57.8,35.7c8.2,2.5,12.6,7.5,17.5,14"></path>
                    <path class="svg-2" d="M54.6,10.2H3.5c-1.9,0-3.5,1.6-3.5,3.5v32.5c0,1.9,1.6,3.5,3.5,3.5h16.9v4.7h-5.9c-1.1,0.1-2.1,0.9-2.3,2.1
					l-1.3,5.1c-0.1,0.6,0,1.1,0.3,1.6c0.5,0.6,1.2,0.9,1.9,0.9H45c0.7,0,1.4-0.3,1.9-0.9c0.4-0.4,0.5-1,0.3-1.6l-1.3-5.1
					c-0.2-1.1-1.1-2-2.3-2.1h-5.9v-4.7h16.9c1.9,0,3.5-1.6,3.5-3.5V13.7C58.1,11.7,56.6,10.2,54.6,10.2z M22.2,55.3V50H36v8.5H22.2
					V55.3z M44.2,56.9l1.3,5.1c-0.1,0.2-0.3,0.3-0.5,0.3H13.2c-0.2,0-0.4-0.1-0.5-0.3l1.4-5.1c0.1-0.2,0.2-0.7,0.5-0.7h5.9v3.3
					c0,0.5,0.4,0.9,0.9,0.9h15.6c0.5,0,0.9-0.4,0.9-0.9v-3.3h5.9C44,56.2,44.1,56.7,44.2,56.9L44.2,56.9z M3.5,11.9h51.1
					c1,0,1.8,0.8,1.8,1.8v32.5c0,1-0.8,1.8-1.8,1.8H3.5c-1,0-1.8-0.8-1.8-1.8V13.7C1.8,12.7,2.6,11.9,3.5,11.9z"></path>
                    <path class="st2" d="M35.3,24.1L35,24.5c-0.1,0.2-0.4,0.2-0.5,0.1c0,0-0.1,0-0.1-0.1L32,21.3c-0.1-0.2-0.1-0.4,0.1-0.5l0,0
					l2.4-1.9l1.5-1.2c0.1-0.1,0.3-0.2,0.5-0.2H38c0.3,0,0.4,0.1,0.5,0.4c0,1.1,0.9,2,2,2c1.1,0,2-0.9,2-2c0-0.4,0.1-0.5,0.5-0.5h1.5
					c0.1,0,0.3,0,0.4,0.1l4,3.2c0.2,0.1,0.2,0.3,0.1,0.5L49,21.3l-2.3,3.1c-0.1,0.2-0.3,0.2-0.5,0.1c-0.1,0-0.1-0.1-0.1-0.1L45.7,24
					v7.8c0,0.4-0.1,0.5-0.5,0.5h-9.3c-0.4,0-0.5-0.1-0.5-0.5V24.1z M48.2,21.1l-3.7-2.9c-0.1,0-0.1-0.1-0.2-0.1h-1
					c-0.1,0-0.2,0-0.2,0.2c-0.2,1.1-1.1,2-2.3,2.2c-1.1,0.2-2.2-0.4-2.7-1.3c-0.2-0.4-0.3-0.7-0.5-1.1h-1c-0.1,0-0.2,0-0.3,0.1
					l-1.6,1.2l-2,1.6l1.9,2.6l0.7-0.8c0.1-0.1,0.3-0.2,0.4-0.1c0.2,0.1,0.3,0.2,0.3,0.4v8.5H45v-8.4c0-0.2,0-0.4,0.2-0.4
					c0.2-0.1,0.4,0,0.5,0.2l0.7,0.7L48.2,21.1z"></path>
                    <path class="svg-2" d="M28,16.7V32c0,0.7-0.4,1.3-0.8,1.3H8.1c-0.4,0-0.8-0.6-0.8-1.3V18c0-0.7,0.4-1.3,0.8-1.3L28,16.7
					c0.1-0.3,0.3-0.7,0.4-1.1H8.1c-0.8,0-1.6,1.1-1.6,2.5v14c0,1.3,0.7,2.5,1.6,2.5h19.1c0.9,0,1.5-1.1,1.5-2.5V18
					c0-0.6,0-2.4-0.3-2.4C27.9,15.3,28.1,16.3,28,16.7z"></path>
                    <path class="svg-2" d="M25,21.7H9.8c-0.3,0-0.6-0.2-0.6-0.6l0,0c0-0.3,0.3-0.6,0.6-0.6H25c0.3,0,0.6,0.2,0.7,0.5
					c0,0.3-0.2,0.6-0.5,0.7C25.1,21.8,25.1,21.8,25,21.7L25,21.7z"></path>
                    <path class="svg-2" d="M25,24.9H9.8c-0.3,0-0.6-0.2-0.7-0.5c0-0.3,0.2-0.6,0.5-0.7c0,0,0,0,0,0c0,0,0.1,0,0.1,0H25
					c0.3,0,0.6,0.2,0.6,0.5c0,0.3-0.2,0.6-0.5,0.6H25z"></path>
                    <path class="svg-2" d="M25,28.1H9.8c-0.3,0-0.6-0.3-0.5-0.6c0-0.2,0.2-0.4,0.4-0.5H25c0.3,0,0.6,0.2,0.7,0.5s-0.2,0.6-0.5,0.7
					c0,0,0,0,0,0L25,28.1z"></path>
                    <path class="svg-2" d="M47.1,45.8c-0.2,0-0.3-0.1-0.3-0.3s0.1-0.3,0.3-0.3c0,0,0,0,0,0l0,0c1,0,1.7-0.8,1.8-1.8V39
					c0-1-0.8-1.7-1.8-1.7H34c-1,0-1.7,0.8-1.7,1.7v0l0,0v4.5c0,0.9,0.8,1.7,1.7,1.7h13.1c0.2,0,0.3,0.1,0.3,0.3S47.3,45.8,47.1,45.8
					C47.1,45.8,47.1,45.8,47.1,45.8H34c-1.3,0-2.4-1.1-2.4-2.4V39c0-1.3,1-2.4,2.3-2.4c0,0,0,0,0,0h13.1c1.3,0,2.4,1.1,2.4,2.4
					c0,0,0,0,0,0v4.5C49.4,44.7,48.4,45.8,47.1,45.8z"></path>
                    <path class="st2" d="M35.4,43.4c-0.2,0-0.4-0.2-0.4-0.4l0,0l0,0v-3.6c0-0.2,0.2-0.4,0.4-0.4l0,0h1.5c0.7,0,1.2,0.5,1.2,1.2
					c0,0,0,0,0,0c0,0.2,0,0.3-0.1,0.4c-0.1,0.1-0.1,0.3-0.2,0.4c0.1,0.1,0.3,0.3,0.3,0.5c0.3,0.6,0,1.4-0.6,1.7
					c-0.2,0.1-0.4,0.1-0.6,0.1H35.4z M35.8,39.9v1h1.2c0.3,0,0.5-0.2,0.5-0.5c0-0.3-0.2-0.5-0.5-0.5L35.8,39.9z M35.8,41.6v1.1H37
					c0.3,0,0.6-0.3,0.6-0.6c0-0.3-0.3-0.6-0.6-0.5c0,0,0,0,0,0H35.8z"></path>
                    <path class="st2" d="M39.5,41.5L39.5,41.5c0,0.7,0.6,1.2,1.2,1.2c0.6,0,1.2-0.5,1.2-1.2v-2c0-0.2,0.2-0.3,0.4-0.3
					c0.2,0,0.3,0.2,0.3,0.3v2l0,0c0,1-0.9,1.9-1.9,1.9c-1.1,0-2-0.8-2-1.9v-2c0-0.2,0.1-0.4,0.3-0.4c0,0,0,0,0,0
					c0.2,0,0.4,0.1,0.4,0.3c0,0,0,0,0,0c0,0,0,0.1,0,0.1L39.5,41.5z"></path>
                    <path class="st2" d="M44.9,41.1l1.3-1.8c0.1-0.1,0.4-0.1,0.5,0c0,0,0,0,0,0l0,0c0.1,0.1,0.1,0.4,0,0.5l-1.5,1.9v1.4
					c0,0.2-0.2,0.3-0.4,0.3c0,0,0,0,0,0c-0.2,0-0.3-0.1-0.3-0.3v-1.4L43,39.8c-0.1-0.1-0.1-0.4,0-0.5c0.1-0.1,0.4-0.1,0.5,0
					c0,0,0,0,0,0l0,0L44.9,41.1z"></path>
                </g>
            </g>
        </g>
    </g>
</svg>