<svg xmlns="http://www.w3.org/2000/svg" x="0px" y="0px" width="110" height="80" viewBox="0 0 36.95 37.08" style="enable-background:new 0 0 80.8 75.5;" xml:space="preserve">
    <defs>
        <style>.svg-5{fill:#1469eb}.svg-6{fill:#14e2a4}</style>
    </defs>
    <g id="Layer_2" data-name="Layer 2">
        <g id="Layer_1-2" data-name="Layer 1">
            <path class="svg-5" d="M15.92,24.51H13.21a.59.59,0,0,1-.6-.59V18a.59.59,0,0,1,.6-.59h2.71a.58.58,0,0,1,.59.59v5.88A.58.58,0,0,1,15.92,24.51Zm-2.71-6.58a.11.11,0,0,0-.12.11v5.88a.12.12,0,0,0,.12.12h2.71a.12.12,0,0,0,.11-.12V18a.11.11,0,0,0-.11-.11Z"></path>
            <path class="svg-5" d="M23.88,22.88h-6a.63.63,0,0,1-.63-.63V18.31a.63.63,0,0,1,.63-.63h6a.63.63,0,0,1,.63.63v3.94A.63.63,0,0,1,23.88,22.88Zm-6-4.73a.16.16,0,0,0-.15.16v3.94a.15.15,0,0,0,.15.15h6a.16.16,0,0,0,.16-.15V18.31a.16.16,0,0,0-.16-.16Z"></path>
            <path class="svg-5" d="M20.48,21.73a.28.28,0,0,1-.17-.07.25.25,0,0,1,0-.34l2.42-2.42a.24.24,0,0,1,.34.34l-2.42,2.42A.28.28,0,0,1,20.48,21.73Z"></path>
            <path class="svg-5" d="M22.07,21.66a.28.28,0,0,1-.17-.07.25.25,0,0,1,0-.34L23,20.19a.23.23,0,0,1,.33.33l-1.06,1.07A.28.28,0,0,1,22.07,21.66Z"></path>
            <path class="svg-5" d="M20.2,20.59a.24.24,0,0,1-.17-.4l1.33-1.34a.24.24,0,0,1,.34.34l-1.33,1.33A.23.23,0,0,1,20.2,20.59Z"></path>
            <path class="svg-5" d="M11.12,15.8v8.57a.24.24,0,0,0,.48,0V16.06A1.72,1.72,0,0,1,11.12,15.8Z"></path>
            <path class="svg-5" d="M25.35,16.06v8.31a.24.24,0,0,0,.48,0V15.8A1.59,1.59,0,0,1,25.35,16.06Z"></path>
            <path class="svg-6" d="M26.39,13.26l0,0L24.88,11.8V11a1,1,0,0,0-1.07-.89H13.1A1,1,0,0,0,12,11v.89l-1.43,1.37,0,0a.24.24,0,0,0-.07.16v1.11a1.61,1.61,0,0,0,1.61,1.61h.36a1.6,1.6,0,0,0,1.37-.77,1.6,1.6,0,0,0,1.37.77h.36a1.62,1.62,0,0,0,1.37-.77,1.6,1.6,0,0,0,1.37.77h.35A1.6,1.6,0,0,0,20,15.37a1.62,1.62,0,0,0,1.37.77h.36a1.6,1.6,0,0,0,1.37-.77,1.6,1.6,0,0,0,1.37.77h.36a1.61,1.61,0,0,0,1.61-1.61V13.42A.24.24,0,0,0,26.39,13.26ZM12.49,11c0-.23.28-.42.61-.42H23.81c.32,0,.6.19.6.42v.55H12.49Zm.08,1H24.38l1.22,1.17H11.35Zm-.11,3.68H12.1A1.14,1.14,0,0,1,11,14.53v-.87h2.62v.87A1.14,1.14,0,0,1,12.46,15.66Zm3.1,0H15.2a1.13,1.13,0,0,1-1.13-1.13v-.87h2.62v.87A1.14,1.14,0,0,1,15.56,15.66Zm3.09,0H18.3a1.13,1.13,0,0,1-1.13-1.13v-.87h2.62v.87A1.14,1.14,0,0,1,18.65,15.66Zm3.1,0h-.36a1.14,1.14,0,0,1-1.13-1.13v-.87h2.62v.87A1.13,1.13,0,0,1,21.75,15.66ZM26,14.53a1.14,1.14,0,0,1-1.13,1.13h-.36a1.14,1.14,0,0,1-1.13-1.13v-.87H26Z"></path>
            <path class="svg-5" d="M18.43,5.27A23.91,23.91,0,0,1,20,3.19,9.54,9.54,0,0,1,26.63,0a9.72,9.72,0,0,1,10.3,10.27,8.56,8.56,0,0,1-1.25,4.07c-.88,1.35-1.85,2.64-2.82,3.93Q26,27.38,19.13,36.45c-.06.08-.13.18-.2.26a.77.77,0,0,1-1.33,0c-.63-.84-1.24-1.68-1.86-2.53q-6.63-9-13.28-18.07a11.89,11.89,0,0,1-2.15-4A9.65,9.65,0,0,1,8.17.14a9.67,9.67,0,0,1,10.17,5ZM18.27,35c.15-.18.27-.33.38-.49q7.53-9.94,15-19.89a8,8,0,0,0,1.68-5.46,8.13,8.13,0,0,0-9-7.54,8,8,0,0,0-7.09,6.15c-.14.5-.37.71-.8.7s-.62-.21-.75-.69a8.19,8.19,0,0,0-16,3.41,10,10,0,0,0,2,3.92c4,5.35,7.9,10.74,11.85,16.12C16.41,32.46,17.33,33.7,18.27,35Z"></path>
        </g>
    </g>
</svg>