<svg version="1.1" id="Layer_1" xmlns="http://www.w3.org/2000/svg" xmlns:xlink="http://www.w3.org/1999/xlink" width="105" height="90" x="0px" y="0px" viewBox="0 0 40 40" style="enable-background:new 0 0 75 75;" xml:space="preserve">
    <defs>
        <style>.cls-1{fill:none}.svg-8{fill:#1469eb}.svg-7{fill:#14e2a4}</style>
    </defs>
    <g id="Layer_2" data-name="Layer 2">
        <g id="Layer_1-2" data-name="Layer 1">
            <g id="Layer_2-2" data-name="Layer 2">
                <g id="Layer_1-2-2" data-name="Layer 1-2">
                    <path class="cls-1" d="M17.14,7a5.83,5.83,0,0,1-.06.72A4.37,4.37,0,0,0,17.14,7Z"></path>
                    <path class="cls-1" d="M17.14,7c0-3.26-2.26-5.91-5-5.91C14.86,1.05,17.11,3.7,17.14,7Z"></path>
                    <path class="cls-1" d="M12.28,16.89a.21.21,0,0,1-.16.08.16.16,0,0,1-.1-.08c-.41-.54-.88-1.11-1.37-1.71A24,24,0,0,1,6.92,9.61H5.61c-.84,5.18-1.69,10.31-2.55,15.47,2.14.33,4.21.69,6.27,1a.94.94,0,0,0,.66-.31L25.74,10l.38-.4H17.31a21.32,21.32,0,0,1-3.69,5.6C13.14,15.8,12.68,16.35,12.28,16.89Z"></path>
                    <path class="cls-1" d="M36,30.53c-1.11-6.66-2.2-13.2-3.32-19.88L16.45,27.43Z"></path>
                    <path class="cls-1" d="M7.1,7a4.76,4.76,0,0,0,.07.75A6.34,6.34,0,0,1,7.1,7Z"></path>
                    <path class="cls-1" d="M2.84,26.41c-.45,2.69-.88,5.3-1.31,7.93l7-7Z"></path>
                    <path class="cls-1" d="M13.7,28.15c-1.16-.19-2.22-.38-3.3-.52a.89.89,0,0,0-.63.27L2.88,34.78l-.37.4H6.78a.81.81,0,0,0,.43-.28q2.49-2.57,5-5.14C12.67,29.25,13.16,28.72,13.7,28.15Z"></path>
                    <path class="cls-1" d="M35.58,31.59q-4.63-.77-9.28-1.5C22.85,29.54,19.4,29,16,28.43a.83.83,0,0,0-.84.26c-1.33,1.41-2.68,2.8-4,4.19l-2.22,2.3,27.6,0c-.18-1.12-.34-2.19-.54-3.25A.55.55,0,0,0,35.58,31.59Z"></path>
                    <path class="svg-8" d="M37.75,35.19q-.54-3.11-1-6.21L33.4,9.28c-.14-.86-.35-1-1.21-1H17.71a8.54,8.54,0,0,1-.4,1.37h8.81l-.38.4L10,25.76a.94.94,0,0,1-.66.31c-2.06-.3-4.13-.66-6.27-1,.86-5.16,1.71-10.29,2.55-15.47H6.92a7.79,7.79,0,0,1-.44-1.37H5.39a.89.89,0,0,0-1,.76.28.28,0,0,0,0,.09c-.15.86-.29,1.73-.43,2.59L2,23.32C1.34,27.2.71,31.08.05,35c-.19,1.16.13,1.58,1.29,1.58H36.53C37.51,36.54,37.9,36.1,37.75,35.19ZM32.63,10.65c1.12,6.68,2.21,13.22,3.32,19.88l-19.5-3.1ZM11.55,26,27.57,10a1.07,1.07,0,0,1,.88-.37H31.6c-.72.75-1.34,1.42-2,2.08Q22.52,19,15.44,26.35a1.47,1.47,0,0,1-1.61.54c-.86-.21-1.75-.29-2.62-.43l-.05-.18A2.7,2.7,0,0,0,11.55,26Zm-8.71.4,5.7.92-7,7C2,31.71,2.39,29.1,2.84,26.41Zm3.94,8.77H2.51l.37-.4L9.77,27.9a.89.89,0,0,1,.63-.27c1.08.14,2.14.33,3.3.52-.54.57-1,1.1-1.53,1.61q-2.47,2.58-5,5.14A.81.81,0,0,1,6.78,35.18Zm2.09,0,2.22-2.3c1.35-1.39,2.7-2.78,4-4.19a.83.83,0,0,1,.84-.26c3.44.57,6.89,1.11,10.34,1.66q4.65.73,9.28,1.5a.55.55,0,0,1,.35.36c.2,1.06.36,2.13.54,3.25Z"></path>
                    <path class="cls-1" d="M13.83,26.89a1.47,1.47,0,0,0,1.61-.54Q22.51,19,29.64,11.66c.62-.66,1.24-1.33,2-2.08H28.45a1.07,1.07,0,0,0-.88.37L11.55,26a2.7,2.7,0,0,1-.39.27l.05.18C12.08,26.6,13,26.68,13.83,26.89Z"></path>
                    <path class="svg-7" d="M10.65,15.18c.49.6,1,1.17,1.37,1.71a.16.16,0,0,0,.1.08.21.21,0,0,0,.16-.08c.4-.54.86-1.09,1.34-1.68a21.32,21.32,0,0,0,3.69-5.6,8.54,8.54,0,0,0,.4-1.37,7.22,7.22,0,0,0,.16-1.39C17.91,3.07,15.3,0,12.12,0S6.31,3.07,6.31,6.85a6.52,6.52,0,0,0,.17,1.39,7.79,7.79,0,0,0,.44,1.37A24,24,0,0,0,10.65,15.18ZM12.12,1.05c2.76,0,5,2.65,5,5.91a4.37,4.37,0,0,1-.06.72c-.31,2.51-2.13,4.75-3.79,6.74-.4.48-.78.94-1.12,1.38-.35-.45-.73-.92-1.13-1.41-1.67-2-3.52-4.31-3.87-6.68A4.76,4.76,0,0,1,7.1,7C7.1,3.7,9.36,1.05,12.12,1.05Z"></path>
                    <path class="svg-7" d="M10,7l-.16.17a.16.16,0,0,1-.21,0l0,0-1-1.32a.16.16,0,0,1,0-.22h0l1-.79.64-.5a.29.29,0,0,1,.2,0h.61c.13,0,.18,0,.19.18a.84.84,0,0,0,1.68,0c0-.16.06-.2.21-.2h.6a.27.27,0,0,1,.2,0L15.6,5.56a.15.15,0,0,1,.06.21l0,0-1,1.3a.16.16,0,0,1-.22,0,.1.1,0,0,1,0,0l-.14-.16v3.24c0,.16,0,.21-.21.21H10.16c-.16,0-.2-.05-.2-.21Zm5.33-1.21L13.77,4.53h-.48s-.07,0-.08.08a1.14,1.14,0,0,1-1,.91A1.12,1.12,0,0,1,11.12,5a3.82,3.82,0,0,1-.21-.46h-.43a.2.2,0,0,0-.11,0l-.65.52-.85.67L9.7,6.8,10,6.49a.17.17,0,0,1,.17-.07c.07,0,.1.08.1.18v3.5h3.69V6.61c0-.08,0-.15.09-.18a.15.15,0,0,1,.19.07l.28.3Z"></path>
                    <path class="cls-1" d="M29.46,20.07a1.33,1.33,0,0,0-1.33,1.34,1.35,1.35,0,0,0,1.35,1.34v0h0a1.34,1.34,0,0,0,1.31-1.37h0A1.33,1.33,0,0,0,29.46,20.07Z"></path>
                    <path class="cls-1" d="M29.46,20.07a1.33,1.33,0,0,0-1.33,1.34,1.35,1.35,0,0,0,1.35,1.34v0h0a1.34,1.34,0,0,0,1.31-1.37h0A1.33,1.33,0,0,0,29.46,20.07Z"></path>
                    <path class="cls-1" d="M29.46,20.07a1.33,1.33,0,0,0-1.33,1.34,1.35,1.35,0,0,0,1.35,1.34v0h0a1.34,1.34,0,0,0,1.31-1.37h0A1.33,1.33,0,0,0,29.46,20.07Z"></path>
                    <path class="cls-1" d="M29.46,20.07a1.33,1.33,0,0,0-1.33,1.34,1.35,1.35,0,0,0,1.35,1.34v0h0a1.34,1.34,0,0,0,1.31-1.37h0A1.33,1.33,0,0,0,29.46,20.07Z"></path>
                    <path class="svg-8" d="M29.48,19.11a2.33,2.33,0,1,0,2.32,2.33h0A2.32,2.32,0,0,0,29.48,19.11Zm1.33,2.3a1.34,1.34,0,0,1-1.31,1.37h0v0a1.35,1.35,0,0,1-1.35-1.34,1.34,1.34,0,0,1,2.68,0Z"></path>
                    <path class="svg-8" d="M29,30.11V23.05c0-.15.22-.27.49-.27s.49.12.49.27v7.06c0,.15-.22.27-.49.27S29,30.26,29,30.11Z"></path>
                </g>
            </g>
        </g>
    </g>
</svg>