<svg xmlns="http://www.w3.org/2000/svg" width="120" height="95" viewBox="0 0 40 35">
    <defs>
        <style>.svg-3{fill:#1469eb}.cls-2{font-size:6px;fill:#14e2a4;font-family:Ubuntu-Medium,Ubuntu;font-weight:500}.cls-3{fill:none;stroke:#14e2a4;stroke-miterlimit:10;stroke-width:.70.05rem}</style>
    </defs>
    <g id="Layer_2" data-name="Layer 2">
        <g id="Layer_1-2" data-name="Layer 1">
            <path class="svg-3" d="M3.43,6.64l-.36.41a.36.36,0,0,1-.6,0L.08,3.85a.36.36,0,0,1,.1-.54L2.6,1.39C3.12,1,3.63.58,4.14.17A.76.76,0,0,1,4.64,0H6.1c.32,0,.43.11.46.42A2,2,0,0,0,8.15,2.35,2,2,0,0,0,10.64.48c0-.39.12-.48.5-.48h1.5A.62.62,0,0,1,13,.13c1.35,1,2.69,2.12,4,3.18a.37.37,0,0,1,.08.57L14.75,7a.37.37,0,0,1-.64,0l-.34-.38v7.83c0,.39-.11.5-.49.5H3.93c-.39,0-.5-.11-.5-.49V6.64Zm12.9-2.95L12.65.78a.32.32,0,0,0-.19-.05h-1c-.13,0-.17,0-.19.17A2.73,2.73,0,0,1,9,3.1,2.69,2.69,0,0,1,6.25,1.8,9.56,9.56,0,0,1,5.79.73c-.31,0-.67,0-1,0A.48.48,0,0,0,4.5.82L2.92,2.07l-2,1.62L2.8,6.26c.24-.26.47-.51.69-.77a.39.39,0,0,1,.41-.14c.18.06.26.18.26.43v8.46h8.89V14c0-2.74,0-5.47,0-8.21a.4.4,0,0,1,.23-.43c.2-.08.34,0,.47.17l.66.73Z"></path>
            <text class="cls-2" transform="translate(15.6 19.67)">vs</text>
            <path class="svg-3" d="M23.85,26.56l-.37.41a.36.36,0,0,1-.6,0l-2.39-3.18a.36.36,0,0,1,.1-.54L23,21.31c.52-.4,1-.81,1.54-1.22a.76.76,0,0,1,.5-.17h1.47c.31,0,.42.1.45.42a2,2,0,0,0,4.08.06c0-.39.12-.48.5-.48h1.5a.6.6,0,0,1,.36.12c1.34,1.05,2.68,2.12,4,3.18a.37.37,0,0,1,.08.57l-2.34,3.12a.38.38,0,0,1-.65,0l-.34-.38v7.83c0,.39-.11.5-.49.5H24.34c-.38,0-.49-.11-.49-.49V26.56Zm12.89-2.95L33.06,20.7a.29.29,0,0,0-.19-.05h-1c-.13,0-.17,0-.19.17A2.72,2.72,0,0,1,29.42,23a2.69,2.69,0,0,1-2.76-1.3,9.56,9.56,0,0,1-.46-1.07h-1a.48.48,0,0,0-.26.09L23.33,22l-2,1.62,1.93,2.57c.24-.26.47-.51.69-.77a.39.39,0,0,1,.41-.14c.18.06.26.18.26.43v8.46h8.89v-.24c0-2.74,0-5.47,0-8.21a.4.4,0,0,1,.23-.43c.2-.08.34,0,.47.17l.67.73Z"></path>
            <path class="cls-3" d="M8.6,17.8A10.39,10.39,0,0,0,19,28.19"></path>
            <path class="cls-3" d="M29,19.43A10.39,10.39,0,0,0,18.62,9"></path>
        </g>
    </g>
</svg>