<svg id="svg" version="1.1" xmlns="http://www.w3.org/2000/svg" xmlns:xlink="http://www.w3.org/1999/xlink" width="400" height="250.83487940630798" viewBox="0, 0, 400,250.83487940630798"><g id="svgg"><path id="path0" d="M318.855 192.346 C 318.749 192.623,318.311 192.723,317.197 192.723 C 316.019 192.723,315.684 192.806,315.684 193.099 C 315.684 193.348,315.435 193.476,314.949 193.476 C 314.545 193.476,314.045 193.645,313.838 193.852 C 313.631 194.059,313.340 194.228,313.192 194.228 C 313.044 194.228,312.923 194.398,312.923 194.605 C 312.923 194.812,312.745 194.981,312.528 194.981 C 312.310 194.981,311.793 195.320,311.379 195.734 C 310.965 196.148,310.530 196.487,310.412 196.487 C 310.294 196.487,310.120 196.729,310.026 197.025 C 309.932 197.321,309.529 197.882,309.131 198.271 C 308.603 198.788,308.407 199.219,308.407 199.866 C 308.407 200.487,308.294 200.753,308.030 200.753 C 307.708 200.753,307.654 201.489,307.654 205.870 C 307.654 210.188,307.713 211.010,308.030 211.132 C 308.237 211.212,308.407 211.550,308.407 211.885 C 308.407 212.220,308.576 212.558,308.783 212.638 C 308.990 212.717,309.159 213.072,309.159 213.425 C 309.159 213.779,309.329 214.133,309.536 214.213 C 309.743 214.292,309.912 214.515,309.912 214.707 C 309.912 214.899,310.082 215.056,310.289 215.056 C 310.496 215.056,310.665 215.169,310.665 215.307 C 310.665 215.445,310.834 215.558,311.041 215.558 C 311.248 215.558,311.418 215.728,311.418 215.935 C 311.418 216.142,311.587 216.311,311.794 216.311 C 312.001 216.311,312.171 216.481,312.171 216.688 C 312.171 216.895,312.326 217.064,312.516 217.064 C 312.706 217.064,313.003 217.233,313.174 217.440 C 313.346 217.647,313.689 217.817,313.937 217.817 C 314.185 217.817,314.430 217.944,314.481 218.099 C 314.533 218.254,315.022 218.458,315.569 218.553 C 316.135 218.652,316.535 218.855,316.499 219.024 C 316.395 219.519,325.120 219.442,325.310 218.946 C 325.406 218.697,325.800 218.570,326.474 218.570 C 327.149 218.570,327.543 218.442,327.638 218.193 C 327.718 217.986,328.053 217.817,328.383 217.817 C 328.750 217.817,328.984 217.670,328.984 217.440 C 328.984 217.225,329.210 217.064,329.512 217.064 C 329.879 217.064,329.997 216.949,329.897 216.688 C 329.796 216.426,329.915 216.311,330.285 216.311 C 330.922 216.311,332.748 214.420,332.748 213.760 C 332.748 213.507,332.917 213.300,333.124 213.300 C 333.354 213.300,333.501 213.066,333.501 212.699 C 333.501 212.369,333.670 212.034,333.877 211.954 C 334.135 211.855,334.253 211.452,334.253 210.673 C 334.253 209.829,334.351 209.536,334.630 209.536 C 334.947 209.536,335.006 208.978,335.006 206.023 C 335.006 203.067,334.947 202.509,334.630 202.509 C 334.352 202.509,334.253 202.219,334.253 201.401 C 334.253 200.124,334.048 199.440,333.725 199.640 C 333.602 199.716,333.501 199.498,333.501 199.154 C 333.501 198.811,333.331 198.361,333.124 198.154 C 332.917 197.947,332.748 197.656,332.748 197.509 C 332.748 197.361,332.578 197.240,332.371 197.240 C 332.164 197.240,331.995 197.070,331.995 196.863 C 331.995 196.656,331.826 196.487,331.619 196.487 C 331.412 196.487,331.242 196.317,331.242 196.110 C 331.242 195.903,331.073 195.734,330.866 195.734 C 330.659 195.734,330.489 195.565,330.489 195.358 C 330.489 195.151,330.332 194.981,330.140 194.981 C 329.948 194.981,329.722 194.805,329.640 194.589 C 329.557 194.373,329.380 194.264,329.246 194.347 C 329.112 194.430,328.772 194.268,328.491 193.987 C 328.210 193.705,327.751 193.476,327.470 193.476 C 327.190 193.476,326.895 193.306,326.816 193.099 C 326.713 192.830,326.293 192.723,325.345 192.723 C 324.397 192.723,323.977 192.615,323.874 192.346 C 323.760 192.049,323.235 191.970,321.365 191.970 C 319.494 191.970,318.970 192.049,318.855 192.346 " stroke="none" fill="#04c4c4" fill-rule="evenodd"></path><path id="path1" d="M133.346 22.195 C 133.226 22.507,132.750 22.585,130.964 22.585 C 129.148 22.585,128.733 22.655,128.733 22.961 C 128.733 23.274,128.245 23.338,125.847 23.338 C 123.449 23.338,122.961 23.401,122.961 23.714 C 122.961 24.028,122.459 24.090,119.950 24.090 C 117.440 24.090,116.939 24.153,116.939 24.467 C 116.939 24.787,116.282 24.843,112.539 24.843 C 108.860 24.843,108.116 24.905,107.995 25.220 C 107.897 25.475,107.497 25.596,106.749 25.596 L 105.646 25.596 105.646 28.490 C 105.646 30.830,105.718 31.411,106.023 31.528 C 106.332 31.647,106.399 32.292,106.399 35.166 C 106.399 38.041,106.466 38.686,106.775 38.805 C 107.092 38.926,107.152 39.709,107.152 43.698 C 107.152 47.688,107.212 48.470,107.528 48.592 C 107.861 48.720,107.905 54.235,107.905 96.137 L 107.905 143.538 122.083 143.538 L 136.261 143.538 136.261 114.806 C 136.261 83.534,136.196 85.069,137.516 85.069 C 137.654 85.069,137.767 84.900,137.767 84.693 C 137.767 84.458,138.004 84.316,138.394 84.316 C 138.784 84.316,139.021 84.174,139.021 83.940 C 139.021 83.689,139.272 83.563,139.774 83.563 C 140.276 83.563,140.527 83.438,140.527 83.187 C 140.527 82.936,140.778 82.811,141.280 82.811 C 141.782 82.811,142.033 82.685,142.033 82.434 C 142.033 82.183,142.284 82.058,142.785 82.058 C 143.287 82.058,143.538 81.932,143.538 81.681 C 143.538 81.430,143.789 81.305,144.291 81.305 C 144.793 81.305,145.044 81.179,145.044 80.928 C 145.044 80.650,145.337 80.552,146.173 80.552 C 147.010 80.552,147.302 80.454,147.302 80.176 C 147.302 79.870,147.708 79.799,149.443 79.799 C 151.115 79.799,151.616 79.717,151.729 79.423 C 151.916 78.934,152.572 78.934,152.572 79.423 C 152.572 79.724,152.949 79.799,154.454 79.799 C 155.960 79.799,156.336 79.875,156.336 80.176 C 156.336 80.411,156.574 80.552,156.971 80.552 C 157.321 80.552,157.672 80.721,157.751 80.928 C 157.831 81.136,158.166 81.305,158.496 81.305 C 158.926 81.305,159.097 81.445,159.097 81.798 C 159.097 82.069,159.435 82.638,159.849 83.061 C 160.384 83.608,160.602 84.076,160.602 84.674 C 160.602 85.192,160.747 85.573,160.979 85.662 C 161.310 85.789,161.355 89.245,161.355 114.672 L 161.355 143.538 175.536 143.538 L 189.717 143.538 189.652 111.752 C 189.600 86.594,189.521 79.945,189.272 79.862 C 189.061 79.792,188.959 79.186,188.959 78.014 C 188.959 76.696,188.867 76.235,188.582 76.126 C 188.318 76.025,188.206 75.613,188.206 74.746 C 188.206 73.879,188.093 73.467,187.829 73.366 C 187.615 73.283,187.453 72.909,187.453 72.495 C 187.453 72.017,187.324 71.769,187.077 71.769 C 186.826 71.769,186.700 71.518,186.700 71.016 C 186.700 70.514,186.575 70.263,186.324 70.263 C 186.073 70.263,185.947 70.013,185.947 69.511 C 185.947 69.009,185.822 68.758,185.571 68.758 C 185.364 68.758,185.194 68.588,185.194 68.381 C 185.194 68.174,185.025 68.005,184.818 68.005 C 184.567 68.005,184.442 67.754,184.442 67.252 C 184.442 66.750,184.316 66.499,184.065 66.499 C 183.858 66.499,183.689 66.330,183.689 66.123 C 183.689 65.916,183.519 65.747,183.312 65.747 C 183.105 65.747,182.936 65.577,182.936 65.370 C 182.936 65.163,182.767 64.994,182.560 64.994 C 182.353 64.994,182.183 64.824,182.183 64.617 C 182.183 64.410,182.014 64.241,181.807 64.241 C 181.600 64.241,181.430 64.072,181.430 63.864 C 181.430 63.614,181.179 63.488,180.678 63.488 C 180.176 63.488,179.925 63.363,179.925 63.112 C 179.925 62.905,179.755 62.735,179.548 62.735 C 179.341 62.735,179.172 62.566,179.172 62.359 C 179.172 62.108,178.921 61.982,178.419 61.982 C 177.917 61.982,177.666 61.857,177.666 61.606 C 177.666 61.355,177.415 61.230,176.913 61.230 C 176.412 61.230,176.161 61.104,176.161 60.853 C 176.161 60.574,175.868 60.477,175.031 60.477 C 174.195 60.477,173.902 60.379,173.902 60.100 C 173.902 59.812,173.584 59.724,172.549 59.724 C 171.577 59.724,171.155 59.618,171.051 59.348 C 170.934 59.043,170.354 58.971,168.013 58.971 C 165.608 58.971,165.119 58.908,165.119 58.595 C 165.119 58.278,164.561 58.218,161.598 58.218 C 158.700 58.218,158.052 58.285,157.933 58.595 C 157.817 58.896,157.267 58.971,155.180 58.971 C 153.029 58.971,152.572 59.037,152.572 59.348 C 152.572 59.640,152.238 59.724,151.066 59.724 C 149.895 59.724,149.561 59.808,149.561 60.100 C 149.561 60.379,149.268 60.477,148.432 60.477 C 147.595 60.477,147.302 60.574,147.302 60.853 C 147.302 61.126,147.023 61.230,146.291 61.230 C 145.623 61.230,145.230 61.358,145.135 61.606 C 145.055 61.813,144.716 61.982,144.382 61.982 C 144.047 61.982,143.708 62.152,143.629 62.359 C 143.550 62.566,143.226 62.735,142.911 62.735 C 142.595 62.735,142.272 62.905,142.193 63.112 C 142.113 63.319,141.875 63.488,141.664 63.488 C 141.453 63.488,141.280 63.657,141.280 63.864 C 141.280 64.074,141.057 64.241,140.778 64.241 C 140.255 64.241,139.272 65.060,139.272 65.496 C 139.272 65.634,138.934 65.747,138.519 65.747 C 138.018 65.747,137.767 65.872,137.767 66.123 C 137.767 66.330,137.597 66.499,137.390 66.499 C 137.183 66.499,137.014 66.669,137.014 66.876 C 137.014 67.127,136.763 67.252,136.261 67.252 C 135.759 67.252,135.508 67.378,135.508 67.629 C 135.508 67.836,135.339 68.005,135.132 68.005 C 134.925 68.005,134.755 67.848,134.755 67.655 C 134.755 67.463,134.925 67.241,135.132 67.161 C 135.436 67.045,135.508 66.467,135.508 64.150 C 135.508 61.828,135.580 61.256,135.886 61.138 C 136.219 61.011,136.256 58.668,136.200 41.475 L 136.136 21.957 134.815 21.881 C 133.804 21.823,133.460 21.897,133.346 22.195 M52.447 28.984 C 52.447 29.304,51.777 29.360,47.930 29.360 C 44.082 29.360,43.413 29.416,43.413 29.737 C 43.413 30.043,42.995 30.113,41.154 30.113 C 39.314 30.113,38.896 30.183,38.896 30.489 C 38.896 30.777,38.578 30.866,37.543 30.866 C 36.571 30.866,36.148 30.972,36.045 31.242 C 35.949 31.491,35.556 31.619,34.889 31.619 C 34.157 31.619,33.877 31.723,33.877 31.995 C 33.877 32.274,33.584 32.371,32.748 32.371 C 31.911 32.371,31.619 32.469,31.619 32.748 C 31.619 32.999,31.368 33.124,30.866 33.124 C 30.364 33.124,30.113 33.250,30.113 33.501 C 30.113 33.779,29.820 33.877,28.984 33.877 C 28.147 33.877,27.854 33.975,27.854 34.253 C 27.854 34.460,27.685 34.630,27.478 34.630 C 27.271 34.630,27.102 34.799,27.102 35.006 C 27.102 35.254,26.854 35.383,26.376 35.383 C 25.962 35.383,25.588 35.545,25.505 35.759 C 25.426 35.966,25.116 36.136,24.817 36.136 C 24.518 36.136,24.012 36.418,23.692 36.763 C 23.372 37.108,22.936 37.390,22.724 37.390 C 22.511 37.390,21.821 37.898,21.191 38.519 C 20.561 39.141,19.939 39.649,19.810 39.649 C 19.680 39.649,19.573 39.818,19.573 40.025 C 19.573 40.239,19.348 40.402,19.050 40.402 C 18.698 40.402,18.433 40.649,18.242 41.154 C 18.086 41.568,17.870 41.907,17.762 41.907 C 17.654 41.907,17.566 42.077,17.566 42.284 C 17.566 42.491,17.396 42.660,17.189 42.660 C 16.982 42.660,16.813 42.829,16.813 43.036 C 16.813 43.243,16.644 43.413,16.437 43.413 C 16.230 43.413,16.060 43.582,16.060 43.789 C 16.060 43.996,15.891 44.166,15.684 44.166 C 15.477 44.166,15.307 44.335,15.307 44.542 C 15.307 44.749,15.138 44.918,14.931 44.918 C 14.680 44.918,14.555 45.169,14.555 45.671 C 14.555 46.173,14.429 46.424,14.178 46.424 C 13.927 46.424,13.802 46.675,13.802 47.177 C 13.802 47.679,13.676 47.930,13.425 47.930 C 13.174 47.930,13.049 48.181,13.049 48.683 C 13.049 49.184,12.923 49.435,12.673 49.435 C 12.422 49.435,12.296 49.686,12.296 50.188 C 12.296 50.690,12.171 50.941,11.920 50.941 C 11.641 50.941,11.543 51.234,11.543 52.070 C 11.543 52.907,11.446 53.199,11.167 53.199 C 10.878 53.199,10.790 53.521,10.790 54.588 C 10.790 55.590,10.686 56.016,10.414 56.120 C 9.848 56.337,9.848 69.956,10.414 70.173 C 10.684 70.276,10.790 70.699,10.790 71.671 C 10.790 72.706,10.879 73.024,11.167 73.024 C 11.446 73.024,11.543 73.317,11.543 74.153 C 11.543 74.990,11.641 75.282,11.920 75.282 C 12.171 75.282,12.296 75.533,12.296 76.035 C 12.296 76.537,12.422 76.788,12.673 76.788 C 12.923 76.788,13.049 77.039,13.049 77.541 C 13.049 78.043,13.174 78.294,13.425 78.294 C 13.676 78.294,13.802 78.545,13.802 79.046 C 13.802 79.548,13.927 79.799,14.178 79.799 C 14.385 79.799,14.555 79.969,14.555 80.176 C 14.555 80.383,14.724 80.552,14.931 80.552 C 15.182 80.552,15.307 80.803,15.307 81.305 C 15.307 81.807,15.433 82.058,15.684 82.058 C 15.891 82.058,16.060 82.227,16.060 82.434 C 16.060 82.641,16.230 82.811,16.437 82.811 C 16.644 82.811,16.813 82.980,16.813 83.187 C 16.813 83.394,16.982 83.563,17.189 83.563 C 17.396 83.563,17.566 83.733,17.566 83.940 C 17.566 84.147,17.723 84.316,17.915 84.316 C 18.108 84.316,18.330 84.486,18.409 84.693 C 18.489 84.900,18.715 85.069,18.912 85.069 C 19.109 85.069,19.808 85.577,20.465 86.198 C 21.123 86.819,21.857 87.327,22.096 87.327 C 22.335 87.327,22.596 87.497,22.675 87.704 C 22.755 87.911,23.106 88.080,23.455 88.080 C 23.852 88.080,24.090 88.221,24.090 88.457 C 24.090 88.664,24.260 88.833,24.467 88.833 C 24.674 88.833,24.843 88.937,24.843 89.064 C 24.843 89.191,25.182 89.370,25.596 89.460 C 26.010 89.551,26.349 89.730,26.349 89.857 C 26.349 89.984,26.688 90.088,27.102 90.088 C 27.604 90.088,27.854 90.213,27.854 90.464 C 27.854 90.743,28.147 90.841,28.984 90.841 C 29.820 90.841,30.113 90.938,30.113 91.217 C 30.113 91.468,30.364 91.593,30.866 91.593 C 31.368 91.593,31.619 91.719,31.619 91.970 C 31.619 92.249,31.911 92.346,32.748 92.346 C 33.584 92.346,33.877 92.444,33.877 92.723 C 33.877 92.993,34.153 93.099,34.854 93.099 C 35.491 93.099,35.881 93.230,35.975 93.476 C 36.071 93.724,36.464 93.852,37.131 93.852 C 37.863 93.852,38.143 93.956,38.143 94.228 C 38.143 94.507,38.436 94.605,39.272 94.605 C 40.109 94.605,40.402 94.702,40.402 94.981 C 40.402 95.260,40.694 95.358,41.531 95.358 C 42.367 95.358,42.660 95.455,42.660 95.734 C 42.660 96.027,42.995 96.110,44.166 96.110 C 45.337 96.110,45.671 96.194,45.671 96.487 C 45.671 96.766,45.964 96.863,46.801 96.863 C 47.637 96.863,47.930 96.961,47.930 97.240 C 47.930 97.532,48.264 97.616,49.435 97.616 C 50.606 97.616,50.941 97.700,50.941 97.992 C 50.941 98.263,51.217 98.369,51.918 98.369 C 52.555 98.369,52.945 98.500,53.039 98.745 C 53.119 98.952,53.458 99.122,53.792 99.122 C 54.127 99.122,54.466 99.291,54.545 99.498 C 54.640 99.747,55.033 99.875,55.701 99.875 C 56.433 99.875,56.713 99.979,56.713 100.251 C 56.713 100.502,56.964 100.627,57.465 100.627 C 57.967 100.627,58.218 100.753,58.218 101.004 C 58.218 101.211,58.376 101.380,58.568 101.380 C 58.760 101.380,58.982 101.550,59.062 101.757 C 59.141 101.964,59.492 102.133,59.842 102.133 C 60.239 102.133,60.477 102.274,60.477 102.509 C 60.477 102.716,60.585 102.886,60.717 102.886 C 60.849 102.886,61.583 103.507,62.348 104.266 C 63.113 105.025,63.852 105.646,63.990 105.646 C 64.128 105.646,64.241 105.819,64.241 106.030 C 64.241 106.242,64.410 106.480,64.617 106.559 C 64.824 106.639,64.994 106.974,64.994 107.304 C 64.994 107.671,65.140 107.905,65.370 107.905 C 65.688 107.905,65.747 108.490,65.747 111.669 C 65.747 114.847,65.688 115.433,65.370 115.433 C 65.119 115.433,64.994 115.684,64.994 116.186 C 64.994 116.688,64.868 116.939,64.617 116.939 C 64.410 116.939,64.241 117.108,64.241 117.315 C 64.241 117.522,64.072 117.691,63.864 117.691 C 63.614 117.691,63.488 117.942,63.488 118.444 C 63.488 119.113,63.404 119.197,62.735 119.197 C 62.233 119.197,61.982 119.322,61.982 119.573 C 61.982 119.780,61.813 119.950,61.606 119.950 C 61.399 119.950,61.230 120.119,61.230 120.326 C 61.230 120.577,60.979 120.703,60.477 120.703 C 59.975 120.703,59.724 120.828,59.724 121.079 C 59.724 121.330,59.473 121.455,58.971 121.455 C 58.469 121.455,58.218 121.581,58.218 121.832 C 58.218 122.121,57.897 122.208,56.830 122.208 C 55.828 122.208,55.402 122.313,55.298 122.585 C 55.080 123.153,39.649 123.153,39.649 122.585 C 39.649 122.278,39.230 122.208,37.390 122.208 C 35.550 122.208,35.132 122.139,35.132 121.832 C 35.132 121.544,34.814 121.455,33.778 121.455 C 32.807 121.455,32.384 121.349,32.281 121.079 C 32.176 120.807,31.750 120.703,30.748 120.703 C 29.682 120.703,29.360 120.615,29.360 120.326 C 29.360 120.047,29.067 119.950,28.231 119.950 C 27.394 119.950,27.102 119.852,27.102 119.573 C 27.102 119.295,26.809 119.197,25.972 119.197 C 25.136 119.197,24.843 119.099,24.843 118.821 C 24.843 118.542,24.550 118.444,23.714 118.444 C 22.877 118.444,22.585 118.347,22.585 118.068 C 22.585 117.817,22.334 117.691,21.832 117.691 C 21.330 117.691,21.079 117.566,21.079 117.315 C 21.079 117.036,20.786 116.939,19.950 116.939 C 19.113 116.939,18.821 116.841,18.821 116.562 C 18.821 116.311,18.570 116.186,18.068 116.186 C 17.566 116.186,17.315 116.060,17.315 115.809 C 17.315 115.574,17.077 115.433,16.680 115.433 C 16.330 115.433,15.979 115.263,15.900 115.056 C 15.591 114.251,13.802 114.572,13.802 115.433 C 13.802 115.935,13.676 116.186,13.425 116.186 C 13.174 116.186,13.049 116.437,13.049 116.939 C 13.049 117.440,12.923 117.691,12.673 117.691 C 12.422 117.691,12.296 117.942,12.296 118.444 C 12.296 118.946,12.171 119.197,11.920 119.197 C 11.669 119.197,11.543 119.448,11.543 119.950 C 11.543 120.452,11.418 120.703,11.167 120.703 C 10.916 120.703,10.790 120.954,10.790 121.455 C 10.790 121.957,10.665 122.208,10.414 122.208 C 10.163 122.208,10.038 122.459,10.038 122.961 C 10.038 123.463,9.912 123.714,9.661 123.714 C 9.410 123.714,9.285 123.965,9.285 124.467 C 9.285 124.969,9.159 125.220,8.908 125.220 C 8.701 125.220,8.532 125.389,8.532 125.596 C 8.532 125.803,8.363 125.972,8.156 125.972 C 7.905 125.972,7.779 126.223,7.779 126.725 C 7.779 127.227,7.654 127.478,7.403 127.478 C 7.173 127.478,7.026 127.712,7.026 128.079 C 7.026 128.409,6.857 128.744,6.650 128.823 C 6.443 128.903,6.274 129.242,6.274 129.576 C 6.274 129.911,6.104 130.250,5.897 130.329 C 5.690 130.409,5.521 130.759,5.521 131.109 C 5.521 131.506,5.380 131.744,5.144 131.744 C 4.893 131.744,4.768 131.995,4.768 132.497 C 4.768 132.999,4.642 133.250,4.391 133.250 C 4.099 133.250,4.015 133.584,4.015 134.755 C 4.015 135.875,4.105 136.261,4.365 136.261 C 4.557 136.261,4.779 136.430,4.859 136.637 C 4.938 136.844,5.277 137.014,5.611 137.014 C 5.946 137.014,6.285 137.183,6.364 137.390 C 6.444 137.597,6.782 137.767,7.117 137.767 C 7.452 137.767,7.790 137.936,7.870 138.143 C 7.965 138.391,8.358 138.519,9.026 138.519 C 9.758 138.519,10.038 138.624,10.038 138.896 C 10.038 139.144,10.286 139.272,10.764 139.272 C 11.177 139.272,11.552 139.434,11.634 139.649 C 11.729 139.897,12.122 140.025,12.790 140.025 C 13.522 140.025,13.802 140.129,13.802 140.402 C 13.802 140.680,14.095 140.778,14.931 140.778 C 15.767 140.778,16.060 140.876,16.060 141.154 C 16.060 141.432,16.350 141.531,17.163 141.531 C 17.911 141.531,18.311 141.652,18.409 141.907 C 18.511 142.171,18.923 142.284,19.790 142.284 C 20.657 142.284,21.068 142.396,21.170 142.660 C 21.274 142.932,21.700 143.036,22.702 143.036 C 23.466 143.036,24.090 143.149,24.090 143.287 C 24.090 143.427,24.760 143.538,25.596 143.538 C 26.767 143.538,27.102 143.622,27.102 143.915 C 27.102 144.221,27.520 144.291,29.360 144.291 C 31.200 144.291,31.619 144.361,31.619 144.668 C 31.619 144.977,32.065 145.044,34.128 145.044 C 36.191 145.044,36.637 145.111,36.637 145.420 C 36.637 145.750,38.129 145.797,48.557 145.797 C 58.985 145.797,60.477 145.750,60.477 145.420 C 60.477 145.115,60.882 145.044,62.618 145.044 C 64.289 145.044,64.790 144.961,64.903 144.668 C 65.007 144.397,65.430 144.291,66.409 144.291 C 67.387 144.291,67.810 144.185,67.914 143.915 C 68.008 143.669,68.399 143.538,69.036 143.538 C 69.573 143.538,70.013 143.425,70.013 143.287 C 70.013 143.149,70.521 143.036,71.142 143.036 C 71.978 143.036,72.271 142.939,72.271 142.660 C 72.271 142.388,72.551 142.284,73.283 142.284 C 73.950 142.284,74.343 142.156,74.439 141.907 C 74.518 141.700,74.857 141.531,75.192 141.531 C 75.526 141.531,75.865 141.361,75.944 141.154 C 76.027 140.940,76.401 140.778,76.815 140.778 C 77.293 140.778,77.541 140.649,77.541 140.402 C 77.541 140.166,77.779 140.025,78.176 140.025 C 78.525 140.025,78.876 139.856,78.956 139.649 C 79.035 139.442,79.374 139.272,79.709 139.272 C 80.043 139.272,80.382 139.103,80.461 138.896 C 80.541 138.689,80.763 138.519,80.955 138.519 C 81.148 138.519,81.305 138.350,81.305 138.143 C 81.305 137.936,81.474 137.767,81.681 137.767 C 81.888 137.767,82.058 137.597,82.058 137.390 C 82.058 137.165,82.289 137.014,82.634 137.014 C 82.967 137.014,83.471 136.700,83.826 136.272 C 84.165 135.863,84.583 135.525,84.755 135.519 C 84.928 135.513,85.069 135.339,85.069 135.132 C 85.069 134.925,85.238 134.755,85.445 134.755 C 85.652 134.755,85.822 134.586,85.822 134.379 C 85.822 134.172,85.991 134.003,86.198 134.003 C 86.405 134.003,86.575 133.833,86.575 133.626 C 86.575 133.419,86.688 133.250,86.826 133.250 C 86.964 133.250,87.077 133.080,87.077 132.873 C 87.077 132.666,87.246 132.497,87.453 132.497 C 87.660 132.497,87.829 132.327,87.829 132.120 C 87.829 131.913,87.999 131.744,88.206 131.744 C 88.413 131.744,88.582 131.575,88.582 131.368 C 88.582 131.161,88.752 130.991,88.959 130.991 C 89.210 130.991,89.335 130.740,89.335 130.238 C 89.335 129.737,89.460 129.486,89.711 129.486 C 89.918 129.486,90.088 129.316,90.088 129.109 C 90.088 128.902,90.257 128.733,90.464 128.733 C 90.715 128.733,90.841 128.482,90.841 127.980 C 90.841 127.478,90.966 127.227,91.217 127.227 C 91.468 127.227,91.593 126.976,91.593 126.474 C 91.593 125.972,91.719 125.721,91.970 125.721 C 92.200 125.721,92.346 125.487,92.346 125.121 C 92.346 124.791,92.516 124.455,92.723 124.376 C 92.971 124.281,93.099 123.888,93.099 123.220 C 93.099 122.488,93.203 122.208,93.476 122.208 C 93.754 122.208,93.852 121.916,93.852 121.079 C 93.852 120.243,93.950 119.950,94.228 119.950 C 94.520 119.950,94.605 119.618,94.605 118.471 C 94.605 117.388,94.706 116.954,94.981 116.848 C 95.549 116.630,95.549 102.133,94.981 102.133 C 94.688 102.133,94.605 101.798,94.605 100.627 C 94.605 99.456,94.521 99.122,94.228 99.122 C 93.950 99.122,93.852 98.829,93.852 97.992 C 93.852 97.156,93.754 96.863,93.476 96.863 C 93.225 96.863,93.099 96.612,93.099 96.110 C 93.099 95.609,92.974 95.358,92.723 95.358 C 92.472 95.358,92.346 95.107,92.346 94.605 C 92.346 94.103,92.221 93.852,91.970 93.852 C 91.734 93.852,91.593 93.614,91.593 93.217 C 91.593 92.867,91.424 92.516,91.217 92.437 C 91.010 92.358,90.841 92.135,90.841 91.943 C 90.841 91.751,90.671 91.593,90.464 91.593 C 90.257 91.593,90.088 91.424,90.088 91.217 C 90.088 91.010,89.918 90.841,89.711 90.841 C 89.477 90.841,89.335 90.604,89.335 90.213 C 89.335 89.823,89.193 89.586,88.959 89.586 C 88.752 89.586,88.582 89.417,88.582 89.210 C 88.582 89.003,88.413 88.833,88.206 88.833 C 87.999 88.833,87.829 88.664,87.829 88.457 C 87.829 88.250,87.660 88.080,87.453 88.080 C 87.246 88.080,87.077 87.911,87.077 87.704 C 87.077 87.497,86.907 87.327,86.700 87.327 C 86.493 87.327,86.324 87.158,86.324 86.951 C 86.324 86.717,86.087 86.575,85.696 86.575 C 85.306 86.575,85.069 86.432,85.069 86.198 C 85.069 85.991,84.900 85.822,84.693 85.822 C 84.486 85.822,84.316 85.652,84.316 85.445 C 84.316 85.238,84.159 85.069,83.967 85.069 C 83.774 85.069,83.552 84.900,83.473 84.693 C 83.393 84.486,83.042 84.316,82.693 84.316 C 82.296 84.316,82.058 84.175,82.058 83.940 C 82.058 83.689,81.807 83.563,81.305 83.563 C 80.803 83.563,80.552 83.438,80.552 83.187 C 80.552 82.980,80.395 82.811,80.203 82.811 C 80.010 82.811,79.788 82.641,79.709 82.434 C 79.629 82.227,79.278 82.058,78.929 82.058 C 78.531 82.058,78.294 81.917,78.294 81.681 C 78.294 81.430,78.043 81.305,77.541 81.305 C 77.039 81.305,76.788 81.179,76.788 80.928 C 76.788 80.678,76.537 80.552,76.035 80.552 C 75.533 80.552,75.282 80.427,75.282 80.176 C 75.282 79.897,74.990 79.799,74.153 79.799 C 73.317 79.799,73.024 79.702,73.024 79.423 C 73.024 79.172,72.773 79.046,72.271 79.046 C 71.769 79.046,71.518 78.921,71.518 78.670 C 71.518 78.400,71.242 78.294,70.541 78.294 C 69.904 78.294,69.514 78.163,69.420 77.917 C 69.325 77.671,68.935 77.541,68.291 77.541 C 67.647 77.541,67.256 77.410,67.161 77.164 C 67.066 76.916,66.673 76.788,66.005 76.788 C 65.273 76.788,64.994 76.684,64.994 76.412 C 64.994 76.133,64.701 76.035,63.864 76.035 C 63.028 76.035,62.735 75.938,62.735 75.659 C 62.735 75.381,62.445 75.282,61.633 75.282 C 60.884 75.282,60.484 75.161,60.386 74.906 C 60.292 74.660,59.901 74.529,59.257 74.529 C 58.613 74.529,58.222 74.399,58.128 74.153 C 58.033 73.907,57.642 73.777,56.998 73.777 C 56.354 73.777,55.964 73.646,55.869 73.400 C 55.778 73.162,55.393 73.024,54.821 73.024 C 54.323 73.024,53.747 72.854,53.540 72.647 C 53.333 72.440,52.833 72.271,52.429 72.271 C 52.025 72.271,51.694 72.158,51.694 72.020 C 51.694 71.882,51.352 71.769,50.933 71.769 C 50.488 71.769,50.112 71.613,50.028 71.393 C 49.934 71.147,49.544 71.016,48.907 71.016 C 48.206 71.016,47.930 70.910,47.930 70.640 C 47.930 70.389,47.679 70.263,47.177 70.263 C 46.675 70.263,46.424 70.138,46.424 69.887 C 46.424 69.636,46.173 69.511,45.671 69.511 C 45.169 69.511,44.918 69.385,44.918 69.134 C 44.918 68.927,44.749 68.758,44.542 68.758 C 44.335 68.758,44.166 68.588,44.166 68.381 C 44.166 68.130,43.915 68.005,43.413 68.005 C 42.911 68.005,42.660 67.880,42.660 67.629 C 42.660 67.422,42.491 67.252,42.284 67.252 C 42.077 67.252,41.907 67.083,41.907 66.876 C 41.907 66.669,41.738 66.499,41.531 66.499 C 41.280 66.499,41.154 66.248,41.154 65.747 C 41.154 65.245,41.029 64.994,40.778 64.994 C 40.571 64.994,40.402 64.824,40.402 64.617 C 40.402 64.410,40.232 64.241,40.025 64.241 C 39.711 64.241,39.649 63.739,39.649 61.230 C 39.649 58.720,39.711 58.218,40.025 58.218 C 40.276 58.218,40.402 57.967,40.402 57.465 C 40.402 56.964,40.527 56.713,40.778 56.713 C 40.985 56.713,41.154 56.543,41.154 56.336 C 41.154 56.129,41.324 55.960,41.531 55.960 C 41.738 55.960,41.907 55.790,41.907 55.583 C 41.907 55.376,42.077 55.207,42.284 55.207 C 42.491 55.207,42.660 55.038,42.660 54.831 C 42.660 54.624,42.829 54.454,43.036 54.454 C 43.243 54.454,43.413 54.285,43.413 54.078 C 43.413 53.827,43.664 53.701,44.166 53.701 C 44.580 53.701,44.918 53.588,44.918 53.450 C 44.918 53.312,45.374 53.199,45.930 53.199 C 46.598 53.199,46.991 53.072,47.086 52.823 C 47.195 52.539,47.655 52.447,48.968 52.447 C 50.281 52.447,50.741 52.355,50.850 52.070 C 50.971 51.756,51.708 51.694,55.332 51.694 C 58.957 51.694,59.694 51.756,59.815 52.070 C 59.930 52.370,60.467 52.447,62.450 52.447 C 64.432 52.447,64.970 52.523,65.084 52.823 C 65.194 53.108,65.656 53.199,66.993 53.199 C 68.002 53.199,68.758 53.307,68.758 53.450 C 68.758 53.588,69.379 53.701,70.138 53.701 C 71.198 53.701,71.518 53.789,71.518 54.078 C 71.518 54.357,71.811 54.454,72.647 54.454 C 73.484 54.454,73.777 54.552,73.777 54.831 C 73.777 55.109,74.069 55.207,74.906 55.207 C 75.742 55.207,76.035 55.305,76.035 55.583 C 76.035 55.862,76.328 55.960,77.164 55.960 C 78.001 55.960,78.294 56.057,78.294 56.336 C 78.294 56.587,78.545 56.713,79.046 56.713 C 79.548 56.713,79.799 56.838,79.799 57.089 C 79.799 57.390,80.176 57.465,81.681 57.465 L 83.563 57.465 83.563 56.713 C 83.563 56.211,83.689 55.960,83.940 55.960 C 84.191 55.960,84.316 55.709,84.316 55.207 C 84.316 54.705,84.442 54.454,84.693 54.454 C 84.922 54.454,85.069 54.220,85.069 53.854 C 85.069 53.523,85.238 53.188,85.445 53.109 C 85.652 53.029,85.822 52.691,85.822 52.356 C 85.822 52.021,85.991 51.683,86.198 51.603 C 86.405 51.524,86.575 51.173,86.575 50.823 C 86.575 50.474,86.688 50.188,86.826 50.188 C 86.964 50.188,87.077 49.849,87.077 49.435 C 87.077 48.934,87.202 48.683,87.453 48.683 C 87.704 48.683,87.829 48.432,87.829 47.930 C 87.829 47.428,87.955 47.177,88.206 47.177 C 88.457 47.177,88.582 46.926,88.582 46.424 C 88.582 45.922,88.708 45.671,88.959 45.671 C 89.166 45.671,89.335 45.502,89.335 45.295 C 89.335 45.088,89.504 44.918,89.711 44.918 C 89.962 44.918,90.088 44.668,90.088 44.166 C 90.088 43.664,90.213 43.413,90.464 43.413 C 90.715 43.413,90.841 43.162,90.841 42.660 C 90.841 42.158,90.966 41.907,91.217 41.907 C 91.468 41.907,91.593 41.656,91.593 41.154 C 91.593 40.652,91.719 40.402,91.970 40.402 C 92.221 40.402,92.346 40.151,92.346 39.649 C 92.346 39.147,92.472 38.896,92.723 38.896 C 92.957 38.896,93.099 38.659,93.099 38.269 C 93.099 37.902,92.955 37.641,92.752 37.641 C 92.561 37.641,92.346 37.415,92.274 37.139 C 92.185 36.800,91.931 36.637,91.491 36.637 C 91.134 36.637,90.841 36.524,90.841 36.386 C 90.841 36.248,90.555 36.136,90.205 36.136 C 89.856 36.136,89.505 35.966,89.426 35.759 C 89.328 35.504,88.927 35.383,88.179 35.383 C 87.366 35.383,87.077 35.284,87.077 35.006 C 87.077 34.734,86.798 34.630,86.073 34.630 C 85.348 34.630,85.069 34.525,85.069 34.253 C 85.069 33.975,84.776 33.877,83.940 33.877 C 83.103 33.877,82.811 33.779,82.811 33.501 C 82.811 33.222,82.518 33.124,81.681 33.124 C 80.845 33.124,80.552 33.027,80.552 32.748 C 80.552 32.455,80.217 32.371,79.046 32.371 C 77.875 32.371,77.541 32.288,77.541 31.995 C 77.541 31.702,77.206 31.619,76.035 31.619 C 74.864 31.619,74.529 31.535,74.529 31.242 C 74.529 30.941,74.153 30.866,72.647 30.866 C 71.142 30.866,70.765 30.790,70.765 30.489 C 70.765 30.185,70.364 30.113,68.659 30.113 C 67.019 30.113,66.521 30.030,66.409 29.737 C 66.287 29.420,65.502 29.360,61.488 29.360 C 57.411 29.360,56.713 29.305,56.713 28.984 C 56.713 28.679,56.308 28.607,54.580 28.607 C 52.851 28.607,52.447 28.679,52.447 28.984 M239.398 59.348 C 239.398 59.649,239.021 59.724,237.516 59.724 C 236.010 59.724,235.634 59.799,235.634 60.100 C 235.634 60.393,235.299 60.477,234.128 60.477 C 232.957 60.477,232.622 60.560,232.622 60.853 C 232.622 61.132,232.330 61.230,231.493 61.230 C 230.657 61.230,230.364 61.327,230.364 61.606 C 230.364 61.878,230.084 61.982,229.352 61.982 C 228.684 61.982,228.291 62.110,228.196 62.359 C 228.117 62.566,227.794 62.735,227.478 62.735 C 227.163 62.735,226.839 62.905,226.760 63.112 C 226.680 63.319,226.330 63.488,225.980 63.488 C 225.583 63.488,225.345 63.629,225.345 63.864 C 225.345 64.115,225.094 64.241,224.592 64.241 C 224.090 64.241,223.839 64.366,223.839 64.617 C 223.839 64.868,223.588 64.994,223.087 64.994 C 222.585 64.994,222.334 65.119,222.334 65.370 C 222.334 65.621,222.083 65.747,221.581 65.747 C 221.079 65.747,220.828 65.872,220.828 66.123 C 220.828 66.330,220.659 66.499,220.452 66.499 C 220.245 66.499,220.075 66.669,220.075 66.876 C 220.075 67.127,219.824 67.252,219.322 67.252 C 218.821 67.252,218.570 67.378,218.570 67.629 C 218.570 67.836,218.400 68.005,218.193 68.005 C 217.986 68.005,217.817 68.174,217.817 68.381 C 217.817 68.588,217.647 68.758,217.440 68.758 C 217.233 68.758,217.064 68.927,217.064 69.134 C 217.064 69.341,216.895 69.511,216.688 69.511 C 216.481 69.511,216.311 69.680,216.311 69.887 C 216.311 70.138,216.060 70.263,215.558 70.263 C 215.056 70.263,214.806 70.389,214.806 70.640 C 214.806 70.847,214.636 71.016,214.429 71.016 C 214.222 71.016,214.048 71.157,214.042 71.330 C 214.036 71.503,213.697 71.921,213.289 72.259 C 212.881 72.598,212.547 73.011,212.547 73.178 C 212.547 73.345,211.927 74.116,211.170 74.892 C 210.412 75.668,209.722 76.582,209.637 76.922 C 209.551 77.262,209.381 77.541,209.258 77.541 C 209.135 77.541,209.034 77.710,209.034 77.917 C 209.034 78.124,208.864 78.294,208.657 78.294 C 208.407 78.294,208.281 78.545,208.281 79.046 C 208.281 79.548,208.156 79.799,207.905 79.799 C 207.654 79.799,207.528 80.050,207.528 80.552 C 207.528 81.054,207.403 81.305,207.152 81.305 C 206.901 81.305,206.775 81.556,206.775 82.058 C 206.775 82.560,206.650 82.811,206.399 82.811 C 206.148 82.811,206.023 83.061,206.023 83.563 C 206.023 84.065,205.897 84.316,205.646 84.316 C 205.367 84.316,205.270 84.609,205.270 85.445 C 205.270 86.282,205.172 86.575,204.893 86.575 C 204.601 86.575,204.517 86.909,204.517 88.080 C 204.517 89.251,204.433 89.586,204.141 89.586 C 203.852 89.586,203.764 89.904,203.764 90.939 C 203.764 91.911,203.658 92.333,203.388 92.437 C 203.062 92.562,203.011 93.873,203.011 102.125 C 203.011 110.441,203.060 111.669,203.388 111.669 C 203.689 111.669,203.764 112.045,203.764 113.551 C 203.764 115.056,203.839 115.433,204.141 115.433 C 204.433 115.433,204.517 115.767,204.517 116.939 C 204.517 118.110,204.601 118.444,204.893 118.444 C 205.166 118.444,205.270 118.724,205.270 119.456 C 205.270 120.124,205.398 120.517,205.646 120.612 C 205.861 120.694,206.023 121.068,206.023 121.482 C 206.023 121.960,206.151 122.208,206.399 122.208 C 206.650 122.208,206.775 122.459,206.775 122.961 C 206.775 123.463,206.901 123.714,207.152 123.714 C 207.403 123.714,207.528 123.965,207.528 124.467 C 207.528 124.969,207.654 125.220,207.905 125.220 C 208.134 125.220,208.281 125.454,208.281 125.820 C 208.281 126.150,208.450 126.486,208.657 126.565 C 208.864 126.644,209.034 126.995,209.034 127.345 C 209.034 127.694,209.147 127.980,209.285 127.980 C 209.423 127.980,209.536 128.149,209.536 128.356 C 209.536 128.563,209.696 128.733,209.892 128.733 C 210.088 128.733,210.323 129.072,210.414 129.486 C 210.505 129.900,210.683 130.238,210.810 130.238 C 210.937 130.238,211.041 130.408,211.041 130.615 C 211.041 130.822,211.211 130.991,211.418 130.991 C 211.625 130.991,211.794 131.161,211.794 131.368 C 211.794 131.575,211.964 131.744,212.171 131.744 C 212.378 131.744,212.547 131.913,212.547 132.120 C 212.547 132.327,212.716 132.497,212.923 132.497 C 213.130 132.497,213.300 132.666,213.300 132.873 C 213.300 133.080,213.469 133.250,213.676 133.250 C 213.883 133.250,214.053 133.419,214.053 133.626 C 214.053 133.833,214.222 134.003,214.429 134.003 C 214.636 134.003,214.806 134.172,214.806 134.379 C 214.806 134.586,214.975 134.755,215.182 134.755 C 215.389 134.755,215.558 134.925,215.558 135.132 C 215.558 135.339,215.728 135.508,215.935 135.508 C 216.142 135.508,216.311 135.678,216.311 135.885 C 216.311 136.092,216.481 136.261,216.688 136.261 C 216.895 136.261,217.064 136.430,217.064 136.637 C 217.064 136.844,217.233 137.014,217.440 137.014 C 217.647 137.014,217.817 137.183,217.817 137.390 C 217.817 137.641,218.068 137.767,218.570 137.767 C 219.072 137.767,219.322 137.892,219.322 138.143 C 219.322 138.350,219.492 138.519,219.699 138.519 C 219.906 138.519,220.075 138.689,220.075 138.896 C 220.075 139.147,220.326 139.272,220.828 139.272 C 221.330 139.272,221.581 139.398,221.581 139.649 C 221.581 139.856,221.702 140.025,221.850 140.025 C 221.998 140.025,222.288 140.194,222.495 140.402 C 222.702 140.609,223.077 140.778,223.329 140.778 C 223.580 140.778,223.851 140.947,223.930 141.154 C 224.010 141.361,224.348 141.531,224.683 141.531 C 225.018 141.531,225.356 141.700,225.436 141.907 C 225.515 142.114,225.818 142.284,226.108 142.284 C 226.398 142.284,226.805 142.453,227.012 142.660 C 227.219 142.867,227.719 143.036,228.123 143.036 C 228.528 143.036,228.858 143.149,228.858 143.287 C 228.858 143.425,229.366 143.538,229.987 143.538 C 230.824 143.538,231.117 143.636,231.117 143.915 C 231.117 144.207,231.451 144.291,232.622 144.291 C 233.793 144.291,234.128 144.375,234.128 144.668 C 234.128 144.969,234.504 145.044,236.010 145.044 C 237.516 145.044,237.892 145.119,237.892 145.420 C 237.892 145.741,238.547 145.797,242.284 145.797 C 246.020 145.797,246.675 145.853,246.675 146.173 C 246.675 146.474,247.051 146.550,248.557 146.550 C 250.063 146.550,250.439 146.474,250.439 146.173 C 250.439 145.853,251.108 145.797,254.956 145.797 C 258.804 145.797,259.473 145.741,259.473 145.420 C 259.473 145.115,259.877 145.044,261.606 145.044 C 263.335 145.044,263.739 144.973,263.739 144.668 C 263.739 144.375,264.074 144.291,265.245 144.291 C 266.416 144.291,266.750 144.207,266.750 143.915 C 266.750 143.636,267.043 143.538,267.880 143.538 C 268.501 143.538,269.009 143.425,269.009 143.287 C 269.009 143.149,269.285 143.036,269.624 143.036 C 269.962 143.036,270.329 142.884,270.439 142.698 C 270.550 142.512,271.082 142.290,271.623 142.205 C 272.164 142.120,272.672 141.951,272.753 141.829 C 272.833 141.708,273.209 141.532,273.588 141.439 C 273.968 141.346,274.279 141.159,274.279 141.024 C 274.279 140.889,274.479 140.778,274.725 140.778 C 274.970 140.778,275.541 140.439,275.995 140.025 C 276.448 139.611,277.013 139.272,277.250 139.272 C 277.696 139.272,278.545 138.449,278.545 138.015 C 278.545 137.878,278.883 137.767,279.297 137.767 C 279.799 137.767,280.050 137.641,280.050 137.390 C 280.050 137.183,280.220 137.014,280.427 137.014 C 280.634 137.014,280.803 136.844,280.803 136.637 C 280.803 136.430,280.972 136.261,281.179 136.261 C 281.386 136.261,281.556 136.092,281.556 135.885 C 281.556 135.678,281.725 135.508,281.932 135.508 C 282.139 135.508,282.309 135.339,282.309 135.132 C 282.309 134.925,282.478 134.755,282.685 134.755 C 282.892 134.755,283.061 134.586,283.061 134.379 C 283.061 134.172,283.231 134.003,283.438 134.003 C 283.645 134.003,283.814 133.833,283.814 133.626 C 283.814 133.419,283.984 133.250,284.191 133.250 C 284.398 133.250,284.567 133.080,284.567 132.873 C 284.567 132.666,284.737 132.497,284.944 132.497 C 285.151 132.497,285.320 132.327,285.320 132.120 C 285.320 131.913,285.489 131.744,285.696 131.744 C 285.903 131.744,286.073 131.575,286.073 131.368 C 286.073 131.161,286.242 130.991,286.449 130.991 C 286.700 130.991,286.826 130.740,286.826 130.238 C 286.826 129.737,286.951 129.486,287.202 129.486 C 287.409 129.486,287.578 129.316,287.578 129.109 C 287.578 128.902,287.748 128.733,287.955 128.733 C 288.206 128.733,288.331 128.482,288.331 127.980 C 288.331 127.478,288.457 127.227,288.708 127.227 C 288.915 127.227,289.084 127.058,289.084 126.851 C 289.084 126.644,289.253 126.474,289.460 126.474 C 289.690 126.474,289.837 126.240,289.837 125.874 C 289.837 125.543,290.006 125.208,290.213 125.129 C 290.433 125.044,290.590 124.668,290.590 124.224 C 290.590 123.715,290.714 123.463,290.966 123.463 C 291.238 123.463,291.343 123.184,291.343 122.459 C 291.343 121.734,291.447 121.455,291.719 121.455 C 291.956 121.455,292.095 121.216,292.095 120.810 C 292.095 120.455,292.265 119.996,292.472 119.788 C 292.679 119.581,292.848 119.073,292.848 118.659 C 292.848 118.245,293.018 117.737,293.225 117.530 C 293.456 117.299,293.601 116.684,293.601 115.938 C 293.601 115.190,293.721 114.682,293.914 114.618 C 294.122 114.548,294.257 113.784,294.316 112.338 C 294.384 110.686,294.490 110.163,294.756 110.163 C 295.302 110.163,295.277 90.639,294.730 90.430 C 294.455 90.324,294.354 89.889,294.354 88.806 C 294.354 87.659,294.269 87.327,293.977 87.327 C 293.688 87.327,293.601 87.006,293.601 85.939 C 293.601 84.937,293.496 84.511,293.225 84.407 C 293.010 84.325,292.848 83.950,292.848 83.537 C 292.848 83.058,292.720 82.811,292.472 82.811 C 292.199 82.811,292.095 82.531,292.095 81.799 C 292.095 81.131,291.967 80.738,291.719 80.643 C 291.512 80.563,291.343 80.225,291.343 79.890 C 291.343 79.555,291.173 79.217,290.966 79.137 C 290.759 79.058,290.590 78.719,290.590 78.384 C 290.590 78.050,290.420 77.711,290.213 77.632 C 290.006 77.552,289.837 77.330,289.837 77.138 C 289.837 76.945,289.668 76.788,289.460 76.788 C 289.225 76.788,289.084 76.550,289.084 76.153 C 289.084 75.803,288.915 75.452,288.708 75.373 C 288.501 75.294,288.331 75.071,288.331 74.879 C 288.331 74.687,288.162 74.529,287.955 74.529 C 287.748 74.529,287.578 74.360,287.578 74.153 C 287.578 73.946,287.409 73.777,287.202 73.777 C 286.968 73.777,286.826 73.540,286.826 73.149 C 286.826 72.759,286.683 72.522,286.449 72.522 C 286.242 72.522,286.073 72.353,286.073 72.146 C 286.073 71.939,285.903 71.769,285.696 71.769 C 285.489 71.769,285.320 71.600,285.320 71.393 C 285.320 71.186,285.151 71.016,284.944 71.016 C 284.737 71.016,284.567 70.847,284.567 70.640 C 284.567 70.433,284.398 70.263,284.191 70.263 C 283.984 70.263,283.814 70.094,283.814 69.887 C 283.814 69.680,283.645 69.511,283.438 69.511 C 283.231 69.511,283.061 69.341,283.061 69.134 C 283.061 68.883,282.811 68.758,282.309 68.758 C 281.807 68.758,281.556 68.632,281.556 68.381 C 281.556 68.174,281.386 68.005,281.179 68.005 C 280.972 68.005,280.803 67.836,280.803 67.629 C 280.803 67.422,280.634 67.252,280.427 67.252 C 280.220 67.252,280.050 67.083,280.050 66.876 C 280.050 66.625,279.799 66.499,279.297 66.499 C 278.883 66.499,278.545 66.388,278.545 66.251 C 278.545 65.771,277.674 64.994,277.135 64.994 C 276.836 64.994,276.526 64.824,276.446 64.617 C 276.367 64.410,276.016 64.241,275.667 64.241 C 275.269 64.241,275.031 64.100,275.031 63.864 C 275.031 63.614,274.780 63.488,274.279 63.488 C 273.777 63.488,273.526 63.363,273.526 63.112 C 273.526 62.864,273.278 62.735,272.800 62.735 C 272.386 62.735,272.012 62.573,271.929 62.359 C 271.834 62.110,271.441 61.982,270.773 61.982 C 270.041 61.982,269.762 61.878,269.762 61.606 C 269.762 61.327,269.469 61.230,268.632 61.230 C 267.796 61.230,267.503 61.132,267.503 60.853 C 267.503 60.560,267.169 60.477,265.997 60.477 C 264.826 60.477,264.492 60.393,264.492 60.100 C 264.492 59.801,264.128 59.724,262.727 59.724 C 261.390 59.724,260.928 59.633,260.818 59.348 C 260.693 59.021,259.261 58.971,250.036 58.971 C 240.747 58.971,239.398 59.019,239.398 59.348 M350.655 59.348 C 350.552 59.618,350.129 59.724,349.158 59.724 C 348.122 59.724,347.804 59.812,347.804 60.100 C 347.804 60.379,347.512 60.477,346.675 60.477 C 345.839 60.477,345.546 60.574,345.546 60.853 C 345.546 61.132,345.253 61.230,344.417 61.230 C 343.580 61.230,343.287 61.327,343.287 61.606 C 343.287 61.857,343.036 61.982,342.535 61.982 C 342.033 61.982,341.782 62.108,341.782 62.359 C 341.782 62.610,341.531 62.735,341.029 62.735 C 340.527 62.735,340.276 62.861,340.276 63.112 C 340.276 63.363,340.025 63.488,339.523 63.488 C 339.021 63.488,338.770 63.614,338.770 63.864 C 338.770 64.072,338.601 64.241,338.394 64.241 C 338.187 64.241,338.018 64.410,338.018 64.617 C 338.018 64.868,337.767 64.994,337.265 64.994 C 336.763 64.994,336.512 65.119,336.512 65.370 C 336.512 65.577,336.343 65.747,336.136 65.747 C 335.928 65.747,335.759 65.916,335.759 66.123 C 335.759 66.374,335.508 66.499,335.006 66.499 C 334.504 66.499,334.253 66.625,334.253 66.876 C 334.253 67.083,334.084 67.252,333.877 67.252 C 333.670 67.252,333.501 67.422,333.501 67.629 C 333.501 67.860,333.266 68.005,332.892 68.005 C 332.523 68.005,332.237 68.178,332.168 68.444 C 332.105 68.686,332.040 68.516,332.024 68.068 C 332.005 67.523,331.870 67.252,331.619 67.252 C 331.340 67.252,331.242 66.959,331.242 66.123 C 331.242 65.286,331.145 64.994,330.866 64.994 C 330.573 64.994,330.489 64.659,330.489 63.488 C 330.489 62.660,330.383 61.982,330.253 61.982 C 330.123 61.982,329.982 61.503,329.939 60.916 L 329.862 59.849 325.408 59.781 C 321.556 59.722,320.954 59.764,320.954 60.095 C 320.954 60.422,320.328 60.477,316.562 60.477 C 312.826 60.477,312.171 60.533,312.171 60.853 C 312.171 61.171,311.585 61.230,308.407 61.230 L 304.642 61.230 304.642 62.359 C 304.642 63.195,304.740 63.488,305.019 63.488 C 305.330 63.488,305.395 63.948,305.395 66.123 C 305.395 68.298,305.461 68.758,305.772 68.758 C 306.081 68.758,306.148 69.204,306.148 71.267 C 306.148 73.331,306.215 73.777,306.524 73.777 C 306.840 73.777,306.901 74.320,306.901 77.164 C 306.901 80.008,306.961 80.552,307.277 80.552 C 307.600 80.552,307.654 81.333,307.654 86.073 C 307.654 90.813,307.707 91.593,308.030 91.593 C 308.363 91.593,308.407 96.557,308.407 134.755 L 308.407 177.917 322.083 177.917 L 335.759 177.917 335.759 161.104 C 335.759 146.327,335.805 144.291,336.136 144.291 C 336.343 144.291,336.512 144.460,336.512 144.668 C 336.512 144.960,336.847 145.044,338.018 145.044 C 339.189 145.044,339.523 145.128,339.523 145.420 C 339.523 145.748,340.722 145.797,348.808 145.797 C 356.894 145.797,358.093 145.748,358.093 145.420 C 358.093 145.119,358.469 145.044,359.975 145.044 C 361.481 145.044,361.857 144.969,361.857 144.668 C 361.857 144.389,362.150 144.291,362.986 144.291 C 363.823 144.291,364.115 144.194,364.115 143.915 C 364.115 143.643,364.394 143.538,365.119 143.538 C 365.671 143.538,366.123 143.425,366.123 143.287 C 366.123 143.149,366.578 143.036,367.135 143.036 C 367.802 143.036,368.195 142.908,368.291 142.660 C 368.373 142.445,368.747 142.284,369.161 142.284 C 369.639 142.284,369.887 142.155,369.887 141.907 C 369.887 141.656,370.138 141.531,370.640 141.531 C 371.142 141.531,371.393 141.405,371.393 141.154 C 371.393 140.919,371.631 140.778,372.028 140.778 C 372.377 140.778,372.728 140.609,372.808 140.402 C 372.887 140.194,373.226 140.025,373.560 140.025 C 373.895 140.025,374.234 139.856,374.313 139.649 C 374.393 139.442,374.615 139.272,374.807 139.272 C 375.000 139.272,375.157 139.103,375.157 138.896 C 375.157 138.660,375.395 138.519,375.792 138.519 C 376.141 138.519,376.492 138.350,376.572 138.143 C 376.651 137.936,376.873 137.767,377.066 137.767 C 377.258 137.767,377.415 137.597,377.415 137.390 C 377.415 137.183,377.585 137.014,377.792 137.014 C 377.999 137.014,378.168 136.844,378.168 136.637 C 378.168 136.430,378.338 136.261,378.545 136.261 C 378.752 136.261,378.921 136.092,378.921 135.885 C 378.921 135.675,379.144 135.508,379.423 135.508 C 379.946 135.508,380.928 134.689,380.928 134.253 C 380.928 134.115,381.098 134.003,381.305 134.003 C 381.512 134.003,381.681 133.833,381.681 133.626 C 381.681 133.419,381.842 133.250,382.038 133.250 C 382.234 133.250,382.469 132.911,382.560 132.497 C 382.651 132.083,382.829 131.744,382.956 131.744 C 383.083 131.744,383.187 131.575,383.187 131.368 C 383.187 131.161,383.356 130.991,383.563 130.991 C 383.770 130.991,383.940 130.822,383.940 130.615 C 383.940 130.408,384.109 130.238,384.316 130.238 C 384.523 130.238,384.693 130.069,384.693 129.862 C 384.693 129.655,384.862 129.486,385.069 129.486 C 385.320 129.486,385.445 129.235,385.445 128.733 C 385.445 128.231,385.571 127.980,385.822 127.980 C 386.029 127.980,386.198 127.811,386.198 127.604 C 386.198 127.396,386.368 127.227,386.575 127.227 C 386.826 127.227,386.951 126.976,386.951 126.474 C 386.951 125.972,387.077 125.721,387.327 125.721 C 387.562 125.721,387.704 125.484,387.704 125.094 C 387.704 124.704,387.846 124.467,388.080 124.467 C 388.331 124.467,388.457 124.216,388.457 123.714 C 388.457 123.212,388.582 122.961,388.833 122.961 C 389.084 122.961,389.210 122.710,389.210 122.208 C 389.210 121.706,389.335 121.455,389.586 121.455 C 389.837 121.455,389.962 121.205,389.962 120.703 C 389.962 120.201,390.088 119.950,390.339 119.950 C 390.618 119.950,390.715 119.657,390.715 118.821 C 390.715 117.984,390.813 117.691,391.092 117.691 C 391.370 117.691,391.468 117.399,391.468 116.562 C 391.468 115.726,391.566 115.433,391.844 115.433 C 392.137 115.433,392.221 115.098,392.221 113.927 C 392.221 112.756,392.304 112.422,392.597 112.422 C 392.898 112.422,392.974 112.045,392.974 110.540 C 392.974 109.034,393.049 108.657,393.350 108.657 C 393.679 108.657,393.726 107.347,393.726 98.369 C 393.726 89.391,393.679 88.080,393.350 88.080 C 393.045 88.080,392.974 87.675,392.974 85.939 C 392.974 84.268,392.891 83.767,392.597 83.654 C 392.342 83.556,392.221 83.156,392.221 82.407 C 392.221 81.595,392.122 81.305,391.844 81.305 C 391.566 81.305,391.468 81.012,391.468 80.176 C 391.468 79.339,391.370 79.046,391.092 79.046 C 390.813 79.046,390.715 78.754,390.715 77.917 C 390.715 77.081,390.618 76.788,390.339 76.788 C 390.088 76.788,389.962 76.537,389.962 76.035 C 389.962 75.533,389.837 75.282,389.586 75.282 C 389.335 75.282,389.210 75.031,389.210 74.529 C 389.210 74.028,389.084 73.777,388.833 73.777 C 388.599 73.777,388.457 73.540,388.457 73.149 C 388.457 72.759,388.315 72.522,388.080 72.522 C 387.873 72.522,387.704 72.353,387.704 72.146 C 387.704 71.939,387.535 71.769,387.327 71.769 C 387.077 71.769,386.951 71.518,386.951 71.016 C 386.951 70.514,386.826 70.263,386.575 70.263 C 386.368 70.263,386.198 70.094,386.198 69.887 C 386.198 69.680,386.029 69.511,385.822 69.511 C 385.615 69.511,385.445 69.341,385.445 69.134 C 385.445 68.927,385.276 68.758,385.069 68.758 C 384.862 68.758,384.693 68.588,384.693 68.381 C 384.693 68.174,384.523 68.005,384.316 68.005 C 384.109 68.005,383.940 67.836,383.940 67.629 C 383.940 67.422,383.770 67.252,383.563 67.252 C 383.356 67.252,383.187 67.083,383.187 66.876 C 383.187 66.669,383.074 66.499,382.936 66.499 C 382.798 66.499,382.685 66.330,382.685 66.123 C 382.685 65.916,382.544 65.742,382.371 65.736 C 382.199 65.730,381.781 65.391,381.442 64.983 C 381.087 64.555,380.583 64.241,380.250 64.241 C 379.905 64.241,379.674 64.090,379.674 63.864 C 379.674 63.657,379.516 63.488,379.324 63.488 C 379.132 63.488,378.910 63.319,378.830 63.112 C 378.751 62.905,378.400 62.735,378.051 62.735 C 377.653 62.735,377.415 62.594,377.415 62.359 C 377.415 62.108,377.164 61.982,376.662 61.982 C 376.161 61.982,375.910 61.857,375.910 61.606 C 375.910 61.327,375.617 61.230,374.780 61.230 C 373.944 61.230,373.651 61.132,373.651 60.853 C 373.651 60.574,373.358 60.477,372.522 60.477 C 371.685 60.477,371.393 60.379,371.393 60.100 C 371.393 59.808,371.058 59.724,369.887 59.724 C 368.716 59.724,368.381 59.640,368.381 59.348 C 368.381 59.020,367.237 58.971,359.591 58.971 C 352.008 58.971,350.780 59.023,350.655 59.348 M251.192 78.670 C 251.192 78.963,251.527 79.046,252.698 79.046 C 253.869 79.046,254.203 79.130,254.203 79.423 C 254.203 79.674,254.454 79.799,254.956 79.799 C 255.458 79.799,255.709 79.925,255.709 80.176 C 255.709 80.427,255.960 80.552,256.462 80.552 C 256.964 80.552,257.215 80.678,257.215 80.928 C 257.215 81.179,257.465 81.305,257.967 81.305 C 258.469 81.305,258.720 81.430,258.720 81.681 C 258.720 81.888,258.890 82.058,259.097 82.058 C 259.304 82.058,259.473 82.227,259.473 82.434 C 259.473 82.641,259.642 82.811,259.849 82.811 C 260.056 82.811,260.226 82.980,260.226 83.187 C 260.226 83.394,260.395 83.563,260.602 83.563 C 260.809 83.563,260.979 83.733,260.979 83.940 C 260.979 84.147,261.079 84.316,261.202 84.316 C 261.325 84.316,261.503 84.621,261.596 84.994 C 261.690 85.366,262.041 85.925,262.376 86.236 C 262.712 86.547,262.986 87.036,262.986 87.323 C 262.986 87.610,263.156 87.910,263.363 87.990 C 263.596 88.079,263.739 88.461,263.739 88.993 C 263.739 89.526,263.882 89.908,264.115 89.997 C 264.330 90.079,264.492 90.454,264.492 90.868 C 264.492 91.346,264.620 91.593,264.868 91.593 C 265.161 91.593,265.245 91.928,265.245 93.099 C 265.245 94.270,265.328 94.605,265.621 94.605 C 265.932 94.605,265.997 95.065,265.997 97.240 C 265.997 99.414,266.063 99.875,266.374 99.875 C 266.692 99.875,266.750 100.460,266.750 103.639 C 266.750 106.817,266.692 107.403,266.374 107.403 C 266.069 107.403,265.997 107.804,265.997 109.509 C 265.997 111.150,265.914 111.647,265.621 111.760 C 265.349 111.864,265.245 112.290,265.245 113.292 C 265.245 114.359,265.157 114.680,264.868 114.680 C 264.631 114.680,264.492 114.919,264.492 115.325 C 264.492 115.680,264.322 116.140,264.115 116.347 C 263.908 116.554,263.739 116.941,263.739 117.207 C 263.739 117.474,263.628 117.691,263.493 117.691 C 263.357 117.691,263.170 117.995,263.077 118.367 C 262.984 118.739,262.651 119.281,262.337 119.572 C 262.023 119.863,261.690 120.406,261.596 120.778 C 261.503 121.151,261.325 121.455,261.202 121.455 C 261.079 121.455,260.979 121.625,260.979 121.832 C 260.979 122.039,260.809 122.208,260.602 122.208 C 260.395 122.208,260.226 122.378,260.226 122.585 C 260.226 122.836,259.975 122.961,259.473 122.961 C 258.971 122.961,258.720 123.087,258.720 123.338 C 258.720 123.545,258.551 123.714,258.344 123.714 C 258.137 123.714,257.967 123.883,257.967 124.090 C 257.967 124.341,257.716 124.467,257.215 124.467 C 256.713 124.467,256.462 124.592,256.462 124.843 C 256.462 125.122,256.169 125.220,255.332 125.220 C 254.711 125.220,254.203 125.316,254.203 125.434 C 254.203 125.553,253.385 125.725,252.384 125.818 C 251.383 125.910,250.527 126.096,250.481 126.230 C 250.372 126.549,248.248 126.549,248.139 126.230 C 248.093 126.096,247.237 125.910,246.236 125.818 C 245.235 125.725,244.417 125.553,244.417 125.434 C 244.417 125.316,243.965 125.220,243.413 125.220 C 242.688 125.220,242.409 125.115,242.409 124.843 C 242.409 124.636,242.236 124.467,242.025 124.467 C 241.813 124.467,241.575 124.297,241.496 124.090 C 241.417 123.883,241.081 123.714,240.751 123.714 C 240.385 123.714,240.151 123.567,240.151 123.338 C 240.151 123.130,239.981 122.961,239.774 122.961 C 239.567 122.961,239.398 122.792,239.398 122.585 C 239.398 122.378,239.285 122.208,239.147 122.208 C 238.821 122.208,237.892 121.279,237.892 120.954 C 237.892 120.816,237.723 120.703,237.516 120.703 C 237.309 120.703,237.139 120.533,237.139 120.326 C 237.139 120.119,236.970 119.950,236.763 119.950 C 236.556 119.950,236.386 119.780,236.386 119.573 C 236.386 119.366,236.217 119.197,236.010 119.197 C 235.759 119.197,235.634 118.946,235.634 118.444 C 235.634 117.942,235.508 117.691,235.257 117.691 C 235.006 117.691,234.881 117.440,234.881 116.939 C 234.881 116.437,234.755 116.186,234.504 116.186 C 234.253 116.186,234.128 115.935,234.128 115.433 C 234.128 114.931,234.003 114.680,233.752 114.680 C 233.473 114.680,233.375 114.387,233.375 113.551 C 233.375 112.714,233.278 112.422,232.999 112.422 C 232.710 112.422,232.622 112.100,232.622 111.034 C 232.622 110.031,232.518 109.605,232.246 109.501 C 231.946 109.386,231.870 108.849,231.870 106.874 C 231.870 104.835,231.802 104.391,231.493 104.391 C 231.175 104.391,231.117 103.806,231.117 100.627 C 231.117 97.449,231.175 96.863,231.493 96.863 C 231.800 96.863,231.870 96.445,231.870 94.605 C 231.870 92.765,231.939 92.346,232.246 92.346 C 232.525 92.346,232.622 92.054,232.622 91.217 C 232.622 90.381,232.720 90.088,232.999 90.088 C 233.250 90.088,233.375 89.837,233.375 89.335 C 233.375 88.833,233.501 88.582,233.752 88.582 C 233.987 88.582,234.128 88.344,234.128 87.947 C 234.128 87.598,234.297 87.247,234.504 87.167 C 234.711 87.088,234.881 86.753,234.881 86.422 C 234.881 86.056,235.027 85.822,235.257 85.822 C 235.464 85.822,235.634 85.665,235.634 85.472 C 235.634 85.280,235.803 85.058,236.010 84.978 C 236.217 84.899,236.386 84.548,236.386 84.199 C 236.386 83.801,236.527 83.563,236.763 83.563 C 236.970 83.563,237.139 83.394,237.139 83.187 C 237.139 82.980,237.309 82.811,237.516 82.811 C 237.723 82.811,237.892 82.641,237.892 82.434 C 237.892 82.199,238.130 82.058,238.527 82.058 C 238.877 82.058,239.228 81.888,239.307 81.681 C 239.386 81.474,239.609 81.305,239.801 81.305 C 239.993 81.305,240.151 81.136,240.151 80.928 C 240.151 80.693,240.388 80.552,240.786 80.552 C 241.135 80.552,241.486 80.383,241.565 80.176 C 241.645 79.969,241.984 79.799,242.318 79.799 C 242.653 79.799,242.992 79.630,243.071 79.423 C 243.175 79.153,243.597 79.046,244.569 79.046 C 245.605 79.046,245.922 78.958,245.922 78.670 C 245.922 78.359,246.382 78.294,248.557 78.294 C 250.732 78.294,251.192 78.359,251.192 78.670 M351.408 79.423 C 351.512 79.695,351.938 79.799,352.941 79.799 C 354.007 79.799,354.329 79.886,354.329 80.176 C 354.329 80.424,354.577 80.552,355.055 80.552 C 355.469 80.552,355.843 80.714,355.925 80.928 C 356.005 81.136,356.355 81.305,356.705 81.305 C 357.102 81.305,357.340 81.446,357.340 81.681 C 357.340 81.888,357.448 82.058,357.579 82.058 C 357.891 82.058,360.351 84.519,360.351 84.830 C 360.351 84.961,360.521 85.069,360.728 85.069 C 360.963 85.069,361.104 85.307,361.104 85.704 C 361.104 86.054,361.274 86.404,361.481 86.484 C 361.688 86.563,361.857 86.902,361.857 87.237 C 361.857 87.571,362.026 87.910,362.233 87.990 C 362.448 88.072,362.610 88.446,362.610 88.860 C 362.610 89.338,362.738 89.586,362.986 89.586 C 363.275 89.586,363.363 89.907,363.363 90.966 C 363.363 92.026,363.450 92.346,363.739 92.346 C 364.050 92.346,364.115 92.806,364.115 94.981 C 364.115 97.156,364.181 97.616,364.492 97.616 C 364.811 97.616,364.868 98.243,364.868 101.757 C 364.868 105.270,364.811 105.897,364.492 105.897 C 364.187 105.897,364.115 106.298,364.115 108.003 C 364.115 109.644,364.032 110.141,363.739 110.254 C 363.467 110.358,363.363 110.784,363.363 111.786 C 363.363 112.853,363.275 113.174,362.986 113.174 C 362.707 113.174,362.610 113.467,362.610 114.304 C 362.610 115.140,362.512 115.433,362.233 115.433 C 361.982 115.433,361.857 115.684,361.857 116.186 C 361.857 116.688,361.731 116.939,361.481 116.939 C 361.230 116.939,361.104 117.189,361.104 117.691 C 361.104 118.193,360.979 118.444,360.728 118.444 C 360.477 118.444,360.351 118.695,360.351 119.197 C 360.351 119.699,360.226 119.950,359.975 119.950 C 359.768 119.950,359.598 120.119,359.598 120.326 C 359.598 120.533,359.429 120.703,359.222 120.703 C 359.015 120.703,358.846 120.872,358.846 121.079 C 358.846 121.286,358.676 121.455,358.469 121.455 C 358.262 121.455,358.093 121.625,358.093 121.832 C 358.093 122.039,357.923 122.208,357.716 122.208 C 357.509 122.208,357.340 122.378,357.340 122.585 C 357.340 122.792,357.171 122.961,356.964 122.961 C 356.757 122.961,356.587 123.130,356.587 123.338 C 356.587 123.545,356.418 123.714,356.211 123.714 C 356.004 123.714,355.834 123.883,355.834 124.090 C 355.834 124.341,355.583 124.467,355.082 124.467 C 354.580 124.467,354.329 124.592,354.329 124.843 C 354.329 125.094,354.078 125.220,353.576 125.220 C 353.162 125.220,352.823 125.320,352.823 125.442 C 352.823 125.564,352.315 125.741,351.694 125.834 C 351.073 125.927,350.565 126.109,350.565 126.239 C 350.565 126.368,349.658 126.474,348.549 126.474 C 346.989 126.474,346.501 126.559,346.389 126.851 C 346.214 127.307,345.628 127.348,345.483 126.914 C 345.414 126.706,344.650 126.571,343.204 126.512 C 342.008 126.463,341.029 126.334,341.029 126.226 C 341.029 126.118,340.521 125.953,339.900 125.860 C 339.279 125.767,338.770 125.585,338.770 125.455 C 338.770 125.326,338.432 125.220,338.018 125.220 C 337.516 125.220,337.265 125.094,337.265 124.843 C 337.265 124.592,337.014 124.467,336.512 124.467 L 335.759 124.467 335.759 104.893 C 335.759 83.729,335.723 84.316,337.014 84.316 C 337.152 84.316,337.265 84.147,337.265 83.940 C 337.265 83.704,337.503 83.563,337.900 83.563 C 338.249 83.563,338.600 83.394,338.680 83.187 C 338.759 82.980,338.981 82.811,339.174 82.811 C 339.366 82.811,339.523 82.641,339.523 82.434 C 339.523 82.183,339.774 82.058,340.276 82.058 C 340.778 82.058,341.029 81.932,341.029 81.681 C 341.029 81.409,341.309 81.305,342.040 81.305 C 342.708 81.305,343.101 81.177,343.197 80.928 C 343.279 80.714,343.653 80.552,344.067 80.552 C 344.545 80.552,344.793 80.424,344.793 80.176 C 344.793 79.877,345.155 79.799,346.550 79.799 C 347.944 79.799,348.306 79.722,348.306 79.423 C 348.306 79.131,348.638 79.046,349.785 79.046 C 350.868 79.046,351.302 79.147,351.408 79.423 M5.521 191.468 L 5.521 218.570 12.923 218.570 L 20.326 218.570 20.326 207.905 L 20.326 197.240 31.117 197.240 L 41.907 197.240 41.907 207.905 L 41.907 218.570 49.310 218.570 L 56.713 218.570 56.713 191.468 L 56.713 164.366 49.310 164.366 L 41.907 164.366 41.907 174.780 L 41.907 185.194 31.117 185.194 L 20.326 185.194 20.326 174.780 L 20.326 164.366 12.923 164.366 L 5.521 164.366 5.521 191.468 M85.822 176.788 C 85.822 177.102,85.320 177.164,82.811 177.164 C 80.301 177.164,79.799 177.227,79.799 177.541 C 79.799 177.820,79.506 177.917,78.670 177.917 C 77.834 177.917,77.541 178.015,77.541 178.294 C 77.541 178.572,77.248 178.670,76.412 178.670 C 75.575 178.670,75.282 178.768,75.282 179.046 C 75.282 179.286,75.042 179.423,74.621 179.423 C 74.238 179.423,73.715 179.687,73.378 180.050 C 73.058 180.395,72.626 180.678,72.416 180.678 C 71.973 180.678,69.511 182.990,69.511 183.407 C 69.511 183.562,69.341 183.689,69.134 183.689 C 68.927 183.689,68.758 183.858,68.758 184.065 C 68.758 184.272,68.588 184.442,68.381 184.442 C 68.174 184.442,68.005 184.611,68.005 184.818 C 68.005 185.025,67.836 185.194,67.629 185.194 C 67.422 185.194,67.252 185.364,67.252 185.571 C 67.252 185.778,67.083 185.947,66.876 185.947 C 66.625 185.947,66.499 186.198,66.499 186.700 C 66.499 187.202,66.374 187.453,66.123 187.453 C 65.872 187.453,65.747 187.704,65.747 188.206 C 65.747 188.708,65.621 188.959,65.370 188.959 C 65.091 188.959,64.994 189.251,64.994 190.088 C 64.994 190.924,64.896 191.217,64.617 191.217 C 64.292 191.217,64.241 192.123,64.241 197.867 C 64.241 203.611,64.292 204.517,64.617 204.517 C 64.910 204.517,64.994 204.852,64.994 206.023 C 64.994 207.194,65.077 207.528,65.370 207.528 C 65.621 207.528,65.747 207.779,65.747 208.281 C 65.747 208.783,65.872 209.034,66.123 209.034 C 66.374 209.034,66.499 209.285,66.499 209.787 C 66.499 210.289,66.625 210.540,66.876 210.540 C 67.083 210.540,67.252 210.709,67.252 210.916 C 67.252 211.123,67.422 211.292,67.629 211.292 C 67.840 211.292,68.005 211.517,68.005 211.805 C 68.005 212.395,70.573 215.056,71.142 215.056 C 71.349 215.056,71.518 215.169,71.518 215.307 C 71.518 215.445,71.688 215.558,71.895 215.558 C 72.102 215.558,72.271 215.728,72.271 215.935 C 72.271 216.186,72.522 216.311,73.024 216.311 C 73.526 216.311,73.777 216.437,73.777 216.688 C 73.777 216.939,74.028 217.064,74.529 217.064 C 75.031 217.064,75.282 217.189,75.282 217.440 C 75.282 217.691,75.533 217.817,76.035 217.817 C 76.537 217.817,76.788 217.942,76.788 218.193 C 76.788 218.486,77.123 218.570,78.294 218.570 C 79.465 218.570,79.799 218.653,79.799 218.946 C 79.799 219.273,80.831 219.322,87.578 219.322 C 94.326 219.322,95.358 219.273,95.358 218.946 C 95.358 218.667,95.650 218.570,96.487 218.570 C 97.323 218.570,97.616 218.472,97.616 218.193 C 97.616 217.921,97.896 217.817,98.628 217.817 C 99.295 217.817,99.688 217.689,99.784 217.440 C 99.863 217.233,100.202 217.064,100.537 217.064 C 100.871 217.064,101.210 216.895,101.289 216.688 C 101.369 216.481,101.591 216.311,101.783 216.311 C 101.976 216.311,102.133 216.142,102.133 215.935 C 102.133 215.701,102.370 215.558,102.760 215.558 C 103.105 215.558,103.388 215.445,103.388 215.307 C 103.388 215.169,103.532 215.056,103.708 215.056 C 104.004 215.056,104.893 214.207,104.893 213.924 C 104.893 213.697,105.895 212.798,106.148 212.798 C 106.286 212.798,106.399 212.641,106.399 212.448 C 106.399 212.256,106.568 212.034,106.775 211.954 C 106.982 211.875,107.152 211.524,107.152 211.175 C 107.152 210.777,107.293 210.540,107.528 210.540 C 107.779 210.540,107.905 210.289,107.905 209.787 C 107.905 209.285,108.030 209.034,108.281 209.034 C 108.532 209.034,108.657 208.783,108.657 208.281 C 108.657 207.779,108.783 207.528,109.034 207.528 C 109.313 207.528,109.410 207.235,109.410 206.399 C 109.410 205.563,109.508 205.270,109.787 205.270 C 110.093 205.270,110.163 204.852,110.163 203.011 C 110.163 201.171,110.233 200.753,110.540 200.753 C 110.857 200.753,110.916 200.181,110.916 197.114 C 110.916 194.047,110.857 193.476,110.540 193.476 C 110.238 193.476,110.163 193.099,110.163 191.593 C 110.163 190.088,110.088 189.711,109.787 189.711 C 109.508 189.711,109.410 189.419,109.410 188.582 C 109.410 187.746,109.313 187.453,109.034 187.453 C 108.783 187.453,108.657 187.202,108.657 186.700 C 108.657 186.198,108.532 185.947,108.281 185.947 C 108.074 185.947,107.905 185.778,107.905 185.571 C 107.905 185.364,107.735 185.194,107.528 185.194 C 107.309 185.194,107.152 184.967,107.152 184.650 C 107.152 184.119,104.634 181.430,104.138 181.430 C 104.011 181.430,103.560 181.092,103.137 180.678 C 102.713 180.263,102.145 179.925,101.873 179.925 C 101.602 179.925,101.380 179.812,101.380 179.674 C 101.380 179.536,101.041 179.423,100.627 179.423 C 100.125 179.423,99.875 179.297,99.875 179.046 C 99.875 178.795,99.624 178.670,99.122 178.670 C 98.620 178.670,98.369 178.545,98.369 178.294 C 98.369 178.001,98.034 177.917,96.863 177.917 C 95.692 177.917,95.358 177.834,95.358 177.541 C 95.358 177.227,94.856 177.164,92.346 177.164 C 89.837 177.164,89.335 177.102,89.335 176.788 C 89.335 176.489,88.973 176.412,87.578 176.412 C 86.184 176.412,85.822 176.489,85.822 176.788 M141.371 176.788 C 141.254 177.092,140.677 177.164,138.367 177.164 C 135.993 177.164,135.508 177.228,135.508 177.541 C 135.508 177.820,135.215 177.917,134.379 177.917 C 133.542 177.917,133.250 178.015,133.250 178.294 C 133.250 178.545,132.999 178.670,132.497 178.670 C 131.995 178.670,131.744 178.795,131.744 179.046 C 131.744 179.286,131.503 179.423,131.083 179.423 C 130.700 179.423,130.177 179.687,129.840 180.050 C 128.748 181.229,127.980 180.918,127.980 179.297 L 127.980 177.917 122.836 177.917 C 118.430 177.917,117.691 177.971,117.691 178.294 C 117.691 178.586,117.357 178.670,116.186 178.670 L 114.680 178.670 114.680 181.179 C 114.680 183.243,114.747 183.689,115.056 183.689 C 115.372 183.689,115.433 184.219,115.433 186.959 C 115.433 189.634,115.501 190.255,115.809 190.373 C 116.140 190.500,116.186 193.214,116.186 212.699 L 116.186 234.881 123.212 234.881 L 130.238 234.881 130.238 227.102 L 130.238 219.322 136.888 219.322 C 142.632 219.322,143.538 219.271,143.538 218.946 C 143.538 218.667,143.831 218.570,144.668 218.570 C 145.504 218.570,145.797 218.472,145.797 218.193 C 145.797 217.914,146.090 217.817,146.926 217.817 C 147.762 217.817,148.055 217.719,148.055 217.440 C 148.055 217.189,148.306 217.064,148.808 217.064 C 149.310 217.064,149.561 216.939,149.561 216.688 C 149.561 216.481,149.730 216.311,149.937 216.311 C 150.144 216.311,150.314 216.142,150.314 215.935 C 150.314 215.703,150.549 215.558,150.929 215.558 C 151.667 215.558,155.243 212.113,155.478 211.175 C 155.561 210.846,155.788 210.515,155.982 210.440 C 156.177 210.365,156.336 210.018,156.336 209.669 C 156.336 209.320,156.449 209.034,156.587 209.034 C 156.725 209.034,156.838 208.864,156.838 208.657 C 156.838 208.450,157.008 208.281,157.215 208.281 C 157.493 208.281,157.591 207.988,157.591 207.152 C 157.591 206.315,157.689 206.023,157.967 206.023 C 158.246 206.023,158.344 205.730,158.344 204.893 C 158.344 204.057,158.441 203.764,158.720 203.764 C 159.046 203.764,159.097 202.774,159.097 196.361 C 159.097 189.948,159.046 188.959,158.720 188.959 C 158.441 188.959,158.344 188.666,158.344 187.829 C 158.344 186.993,158.246 186.700,157.967 186.700 C 157.695 186.700,157.591 186.420,157.591 185.688 C 157.591 185.021,157.463 184.628,157.215 184.532 C 157.008 184.453,156.838 184.122,156.838 183.797 C 156.838 182.916,153.357 179.423,152.480 179.423 C 152.060 179.423,151.819 179.286,151.819 179.046 C 151.819 178.795,151.568 178.670,151.066 178.670 C 150.565 178.670,150.314 178.545,150.314 178.294 C 150.314 178.043,150.063 177.917,149.561 177.917 C 149.059 177.917,148.808 177.792,148.808 177.541 C 148.808 177.227,148.306 177.164,145.797 177.164 C 143.287 177.164,142.785 177.102,142.785 176.788 C 142.785 176.552,142.548 176.412,142.150 176.412 C 141.801 176.412,141.450 176.581,141.371 176.788 M191.217 176.788 C 191.217 177.102,190.715 177.164,188.206 177.164 C 185.696 177.164,185.194 177.227,185.194 177.541 C 185.194 177.820,184.902 177.917,184.065 177.917 C 183.229 177.917,182.936 178.015,182.936 178.294 C 182.936 178.545,182.685 178.670,182.183 178.670 C 181.681 178.670,181.430 178.795,181.430 179.046 C 181.430 179.286,181.190 179.423,180.769 179.423 C 180.386 179.423,179.863 179.687,179.526 180.050 C 178.434 181.229,177.666 180.918,177.666 179.297 L 177.666 177.917 172.522 177.917 C 168.117 177.917,167.378 177.971,167.378 178.294 C 167.378 178.586,167.043 178.670,165.872 178.670 L 164.366 178.670 164.366 181.179 C 164.366 183.243,164.433 183.689,164.743 183.689 C 165.058 183.689,165.119 184.219,165.119 186.959 C 165.119 189.634,165.188 190.255,165.496 190.373 C 165.826 190.500,165.872 193.214,165.872 212.699 L 165.872 234.881 172.898 234.881 L 179.925 234.881 179.925 227.102 L 179.925 219.322 186.575 219.322 C 192.318 219.322,193.225 219.271,193.225 218.946 C 193.225 218.667,193.517 218.570,194.354 218.570 C 195.190 218.570,195.483 218.472,195.483 218.193 C 195.483 217.914,195.776 217.817,196.612 217.817 C 197.449 217.817,197.742 217.719,197.742 217.440 C 197.742 217.189,197.992 217.064,198.494 217.064 C 198.996 217.064,199.247 216.939,199.247 216.688 C 199.247 216.481,199.417 216.311,199.624 216.311 C 199.831 216.311,200.000 216.142,200.000 215.935 C 200.000 215.695,200.241 215.558,200.665 215.558 C 201.444 215.558,205.270 211.808,205.270 211.044 C 205.270 210.796,205.439 210.528,205.646 210.449 C 205.853 210.369,206.023 210.018,206.023 209.669 C 206.023 209.272,206.164 209.034,206.399 209.034 C 206.606 209.034,206.775 208.874,206.775 208.678 C 206.775 208.483,206.891 208.284,207.032 208.237 C 207.174 208.190,207.360 207.701,207.447 207.150 C 207.533 206.599,207.757 206.058,207.943 205.947 C 208.136 205.833,208.281 205.320,208.281 204.755 C 208.281 204.210,208.394 203.764,208.532 203.764 C 208.694 203.764,208.783 201.129,208.783 196.361 C 208.783 191.593,208.694 188.959,208.532 188.959 C 208.394 188.959,208.281 188.513,208.281 187.967 C 208.281 187.402,208.136 186.890,207.943 186.775 C 207.757 186.665,207.535 186.132,207.450 185.591 C 207.365 185.050,207.193 184.542,207.069 184.462 C 206.945 184.382,206.762 184.057,206.663 183.740 C 206.344 182.716,202.913 179.423,202.166 179.423 C 201.746 179.423,201.506 179.286,201.506 179.046 C 201.506 178.795,201.255 178.670,200.753 178.670 C 200.251 178.670,200.000 178.545,200.000 178.294 C 200.000 178.043,199.749 177.917,199.247 177.917 C 198.745 177.917,198.494 177.792,198.494 177.541 C 198.494 177.227,197.992 177.164,195.483 177.164 C 192.974 177.164,192.472 177.102,192.472 176.788 C 192.472 176.554,192.235 176.412,191.844 176.412 C 191.454 176.412,191.217 176.554,191.217 176.788 M229.611 177.541 C 229.611 177.829,229.293 177.917,228.258 177.917 C 227.286 177.917,226.864 178.023,226.760 178.294 C 226.665 178.542,226.272 178.670,225.604 178.670 C 224.872 178.670,224.592 178.774,224.592 179.046 C 224.592 179.297,224.341 179.423,223.839 179.423 C 223.425 179.423,223.087 179.536,223.087 179.674 C 223.087 179.812,222.869 179.925,222.603 179.925 C 222.336 179.925,221.949 180.094,221.742 180.301 C 221.535 180.508,221.245 180.678,221.097 180.678 C 220.949 180.678,220.828 180.847,220.828 181.054 C 220.828 181.289,220.590 181.430,220.193 181.430 C 219.844 181.430,219.493 181.600,219.413 181.807 C 219.334 182.014,219.111 182.183,218.919 182.183 C 218.727 182.183,218.570 182.353,218.570 182.560 C 218.570 182.767,218.400 182.936,218.193 182.936 C 217.986 182.936,217.817 183.105,217.817 183.312 C 217.817 183.519,217.647 183.689,217.440 183.689 C 217.233 183.689,217.064 183.846,217.064 184.038 C 217.064 184.231,216.895 184.453,216.688 184.532 C 216.481 184.612,216.311 184.963,216.311 185.312 C 216.311 185.709,216.170 185.947,215.935 185.947 C 215.728 185.947,215.558 186.105,215.558 186.297 C 215.558 186.489,215.389 186.711,215.182 186.791 C 214.975 186.870,214.806 187.209,214.806 187.544 C 214.806 187.878,214.636 188.217,214.429 188.297 C 214.181 188.392,214.053 188.785,214.053 189.453 C 214.053 190.185,213.949 190.464,213.676 190.464 C 213.399 190.464,213.300 190.754,213.300 191.567 C 213.300 192.315,213.179 192.715,212.923 192.813 C 212.604 192.936,212.547 193.832,212.547 198.737 C 212.547 203.707,212.600 204.517,212.923 204.517 C 213.213 204.517,213.300 204.838,213.300 205.905 C 213.300 206.907,213.404 207.333,213.676 207.437 C 213.891 207.520,214.053 207.894,214.053 208.308 C 214.053 208.786,214.181 209.034,214.429 209.034 C 214.680 209.034,214.806 209.285,214.806 209.787 C 214.806 210.289,214.931 210.540,215.182 210.540 C 215.393 210.540,215.558 210.763,215.558 211.049 C 215.558 211.337,216.214 212.216,217.064 213.069 C 217.892 213.900,218.570 214.687,218.570 214.818 C 218.570 214.949,218.739 215.056,218.946 215.056 C 219.153 215.056,219.322 215.169,219.322 215.307 C 219.322 215.445,219.492 215.558,219.699 215.558 C 219.906 215.558,220.075 215.728,220.075 215.935 C 220.075 216.186,220.326 216.311,220.828 216.311 C 221.330 216.311,221.581 216.437,221.581 216.688 C 221.581 216.939,221.832 217.064,222.334 217.064 C 222.836 217.064,223.087 217.189,223.087 217.440 C 223.087 217.691,223.338 217.817,223.839 217.817 C 224.341 217.817,224.592 217.942,224.592 218.193 C 224.592 218.472,224.885 218.570,225.721 218.570 C 226.558 218.570,226.851 218.667,226.851 218.946 C 226.851 219.244,227.210 219.322,228.580 219.322 C 229.886 219.322,230.346 219.415,230.455 219.699 C 230.576 220.016,231.386 220.075,235.599 220.075 C 239.812 220.075,240.621 220.016,240.743 219.699 C 240.853 219.414,241.315 219.322,242.652 219.322 C 244.053 219.322,244.417 219.245,244.417 218.946 C 244.417 218.653,244.751 218.570,245.922 218.570 C 247.093 218.570,247.428 218.486,247.428 218.193 C 247.428 217.942,247.679 217.817,248.181 217.817 C 248.683 217.817,248.934 217.691,248.934 217.440 C 248.934 217.162,249.226 217.064,250.063 217.064 C 250.899 217.064,251.192 216.966,251.192 216.688 C 251.192 216.437,251.443 216.311,251.945 216.311 C 252.447 216.311,252.698 216.186,252.698 215.935 C 252.698 215.701,252.934 215.558,253.322 215.558 C 253.666 215.558,254.174 215.364,254.451 215.126 C 255.046 214.617,255.133 213.551,254.580 213.551 C 254.329 213.551,254.203 213.300,254.203 212.798 C 254.203 212.296,254.078 212.045,253.827 212.045 C 253.576 212.045,253.450 211.794,253.450 211.292 C 253.450 210.790,253.325 210.540,253.074 210.540 C 252.823 210.540,252.698 210.289,252.698 209.787 C 252.698 209.285,252.572 209.034,252.321 209.034 C 252.070 209.034,251.945 208.783,251.945 208.281 C 251.945 207.779,251.819 207.528,251.568 207.528 C 251.317 207.528,251.192 207.277,251.192 206.775 C 251.192 206.050,251.150 206.023,250.063 206.023 C 249.226 206.023,248.934 206.120,248.934 206.399 C 248.934 206.671,248.654 206.775,247.922 206.775 C 247.254 206.775,246.861 206.903,246.766 207.152 C 246.686 207.359,246.348 207.528,246.013 207.528 C 245.678 207.528,245.340 207.698,245.260 207.905 C 245.166 208.150,244.776 208.281,244.139 208.281 C 243.438 208.281,243.162 208.387,243.162 208.657 C 243.162 208.959,242.785 209.034,241.280 209.034 C 239.774 209.034,239.398 209.109,239.398 209.410 C 239.398 209.711,239.021 209.787,237.516 209.787 C 236.010 209.787,235.634 209.711,235.634 209.410 C 235.634 209.131,235.341 209.034,234.504 209.034 C 233.668 209.034,233.375 208.936,233.375 208.657 C 233.375 208.407,233.124 208.281,232.622 208.281 C 232.120 208.281,231.870 208.156,231.870 207.905 C 231.870 207.654,231.619 207.528,231.117 207.528 C 230.615 207.528,230.364 207.403,230.364 207.152 C 230.364 206.945,230.194 206.775,229.987 206.775 C 229.737 206.775,229.611 206.524,229.611 206.023 C 229.611 205.521,229.486 205.270,229.235 205.270 C 229.028 205.270,228.858 205.100,228.858 204.893 C 228.858 204.686,228.689 204.517,228.482 204.517 C 228.189 204.517,228.105 204.182,228.105 203.011 L 228.105 201.506 234.128 201.506 C 239.314 201.506,240.151 201.453,240.151 201.129 C 240.151 200.805,240.973 200.753,246.048 200.753 C 251.122 200.753,251.945 200.700,251.945 200.376 C 251.945 200.125,252.196 200.000,252.698 200.000 C 253.199 200.000,253.450 199.875,253.450 199.624 C 253.450 199.417,253.620 199.247,253.827 199.247 C 254.034 199.247,254.203 199.078,254.203 198.871 C 254.203 198.664,254.373 198.494,254.580 198.494 C 254.896 198.494,254.956 197.936,254.956 194.973 C 254.956 192.075,254.890 191.427,254.580 191.308 C 254.324 191.210,254.203 190.809,254.203 190.061 C 254.203 189.248,254.104 188.959,253.827 188.959 C 253.548 188.959,253.450 188.666,253.450 187.829 C 253.450 186.993,253.353 186.700,253.074 186.700 C 252.823 186.700,252.698 186.449,252.698 185.947 C 252.698 185.445,252.572 185.194,252.321 185.194 C 252.086 185.194,251.945 184.957,251.945 184.559 C 251.945 184.210,251.775 183.859,251.568 183.780 C 251.361 183.700,251.192 183.478,251.192 183.286 C 251.192 183.093,251.023 182.936,250.816 182.936 C 250.609 182.936,250.439 182.767,250.439 182.560 C 250.439 182.353,250.270 182.183,250.063 182.183 C 249.856 182.183,249.686 182.014,249.686 181.807 C 249.686 181.600,249.568 181.430,249.423 181.430 C 249.279 181.430,248.906 181.156,248.595 180.820 C 248.284 180.485,247.725 180.134,247.352 180.040 C 246.980 179.947,246.675 179.770,246.675 179.647 C 246.675 179.524,246.336 179.423,245.922 179.423 C 245.420 179.423,245.169 179.297,245.169 179.046 C 245.169 178.795,244.918 178.670,244.417 178.670 C 243.915 178.670,243.664 178.545,243.664 178.294 C 243.664 178.006,243.346 177.917,242.310 177.917 C 241.339 177.917,240.916 177.811,240.813 177.541 C 240.690 177.222,239.822 177.164,235.140 177.164 C 230.393 177.164,229.611 177.218,229.611 177.541 M278.795 177.541 C 278.795 177.792,278.545 177.917,278.043 177.917 C 277.541 177.917,277.290 178.043,277.290 178.294 C 277.290 178.545,277.039 178.670,276.537 178.670 C 276.035 178.670,275.784 178.795,275.784 179.046 C 275.784 179.253,275.615 179.423,275.408 179.423 C 275.201 179.423,275.031 179.527,275.031 179.654 C 275.031 179.781,274.693 179.959,274.279 180.050 C 273.864 180.141,273.526 180.376,273.526 180.572 C 273.526 180.768,273.356 180.928,273.149 180.928 C 272.870 180.928,272.773 180.636,272.773 179.799 C 272.773 178.963,272.675 178.670,272.396 178.670 C 272.189 178.670,272.020 178.501,272.020 178.294 C 272.020 177.972,271.322 177.917,267.244 177.917 C 263.231 177.917,262.446 177.977,262.324 178.294 C 262.220 178.564,261.798 178.670,260.826 178.670 L 259.473 178.670 259.473 181.179 C 259.473 183.243,259.540 183.689,259.849 183.689 C 260.167 183.689,260.226 184.274,260.226 187.453 C 260.226 190.632,260.284 191.217,260.602 191.217 C 260.932 191.217,260.979 192.904,260.979 204.893 L 260.979 218.570 268.005 218.570 L 275.031 218.570 275.031 204.517 L 275.031 190.464 275.659 190.464 C 276.049 190.464,276.286 190.322,276.286 190.088 C 276.286 189.879,276.509 189.711,276.788 189.711 C 277.067 189.711,277.290 189.544,277.290 189.335 C 277.290 189.063,277.569 188.959,278.294 188.959 C 279.019 188.959,279.297 188.854,279.297 188.582 C 279.297 188.271,279.757 188.206,281.932 188.206 C 284.107 188.206,284.567 188.271,284.567 188.582 C 284.567 188.883,284.944 188.959,286.449 188.959 L 288.331 188.959 288.331 187.453 C 288.331 186.282,288.415 185.947,288.708 185.947 C 289.009 185.947,289.084 185.571,289.084 184.065 C 289.084 182.560,289.159 182.183,289.460 182.183 C 289.770 182.183,289.837 181.737,289.837 179.674 L 289.837 177.164 284.316 177.164 C 279.576 177.164,278.795 177.218,278.795 177.541 M87.990 187.077 C 88.083 187.319,88.471 187.453,89.084 187.453 C 89.697 187.453,90.085 187.586,90.179 187.829 C 90.258 188.036,90.609 188.206,90.958 188.206 C 91.356 188.206,91.593 188.347,91.593 188.582 C 91.593 188.789,91.763 188.959,91.970 188.959 C 92.177 188.959,92.346 189.128,92.346 189.335 C 92.346 189.542,92.516 189.711,92.723 189.711 C 92.930 189.711,93.099 189.881,93.099 190.088 C 93.099 190.295,93.269 190.464,93.476 190.464 C 93.711 190.464,93.852 190.702,93.852 191.099 C 93.852 191.449,94.021 191.800,94.228 191.879 C 94.471 191.972,94.605 192.361,94.605 192.974 C 94.605 193.587,94.738 193.975,94.981 194.068 C 95.275 194.181,95.358 194.682,95.358 196.353 C 95.358 198.089,95.429 198.494,95.734 198.494 C 95.941 198.494,96.110 198.652,96.110 198.844 C 96.110 199.036,95.941 199.258,95.734 199.338 C 95.440 199.451,95.358 199.952,95.358 201.623 C 95.358 203.359,95.286 203.764,94.981 203.764 C 94.730 203.764,94.605 204.015,94.605 204.517 C 94.605 205.019,94.479 205.270,94.228 205.270 C 94.021 205.270,93.852 205.427,93.852 205.619 C 93.852 205.812,93.683 206.034,93.476 206.113 C 93.269 206.193,93.099 206.544,93.099 206.893 C 93.099 207.405,92.976 207.528,92.464 207.528 C 92.115 207.528,91.764 207.698,91.684 207.905 C 91.605 208.112,91.382 208.281,91.190 208.281 C 90.998 208.281,90.841 208.450,90.841 208.657 C 90.841 208.973,90.311 209.034,87.578 209.034 C 84.846 209.034,84.316 208.973,84.316 208.657 C 84.316 208.450,84.159 208.281,83.967 208.281 C 83.774 208.281,83.552 208.112,83.473 207.905 C 83.393 207.698,83.042 207.528,82.693 207.528 C 82.296 207.528,82.058 207.387,82.058 207.152 C 82.058 206.945,81.888 206.775,81.681 206.775 C 81.430 206.775,81.305 206.524,81.305 206.023 C 81.305 205.521,81.179 205.270,80.928 205.270 C 80.693 205.270,80.552 205.032,80.552 204.635 C 80.552 204.285,80.383 203.934,80.176 203.855 C 79.930 203.760,79.799 203.370,79.799 202.726 C 79.799 202.082,79.669 201.691,79.423 201.596 C 79.110 201.476,79.046 200.777,79.046 197.464 C 79.046 194.086,79.104 193.476,79.423 193.476 C 79.671 193.476,79.799 193.228,79.799 192.750 C 79.799 192.336,79.961 191.961,80.176 191.879 C 80.383 191.800,80.552 191.449,80.552 191.099 C 80.552 190.702,80.693 190.464,80.928 190.464 C 81.136 190.464,81.305 190.351,81.305 190.213 C 81.305 190.075,81.531 189.737,81.807 189.460 C 82.083 189.184,82.422 188.959,82.560 188.959 C 82.698 188.959,82.811 188.789,82.811 188.582 C 82.811 188.352,83.045 188.206,83.411 188.206 C 83.741 188.206,84.077 188.036,84.156 187.829 C 84.252 187.580,84.645 187.453,85.320 187.453 C 85.995 187.453,86.388 187.326,86.484 187.077 C 86.563 186.870,86.902 186.700,87.237 186.700 C 87.571 186.700,87.910 186.870,87.990 187.077 M237.892 187.077 C 237.892 187.284,238.061 187.453,238.269 187.453 C 238.476 187.453,238.645 187.622,238.645 187.829 C 238.645 188.036,238.814 188.206,239.021 188.206 C 239.228 188.206,239.398 188.375,239.398 188.582 C 239.398 188.789,239.567 188.959,239.774 188.959 C 239.981 188.959,240.151 189.128,240.151 189.335 C 240.151 189.542,240.320 189.711,240.527 189.711 C 240.820 189.711,240.903 190.046,240.903 191.217 L 240.903 192.723 236.763 192.723 C 233.250 192.723,232.622 192.780,232.622 193.099 C 232.622 193.406,232.204 193.476,230.364 193.476 L 228.105 193.476 228.105 192.346 C 228.105 191.510,228.203 191.217,228.482 191.217 C 228.733 191.217,228.858 190.966,228.858 190.464 C 228.858 189.962,228.984 189.711,229.235 189.711 C 229.442 189.711,229.611 189.542,229.611 189.335 C 229.611 189.128,229.780 188.959,229.987 188.959 C 230.194 188.959,230.364 188.789,230.364 188.582 C 230.364 188.375,230.533 188.206,230.740 188.206 C 230.947 188.206,231.117 188.036,231.117 187.829 C 231.117 187.578,231.368 187.453,231.870 187.453 C 232.371 187.453,232.622 187.327,232.622 187.077 C 232.622 186.766,233.082 186.700,235.257 186.700 C 237.432 186.700,237.892 186.766,237.892 187.077 M139.272 187.829 C 139.272 188.036,139.494 188.206,139.766 188.206 C 140.266 188.206,142.033 189.777,142.033 190.222 C 142.033 190.355,142.202 190.464,142.409 190.464 C 142.660 190.464,142.785 190.715,142.785 191.217 C 142.785 191.719,142.911 191.970,143.162 191.970 C 143.461 191.970,143.538 192.332,143.538 193.726 C 143.538 195.121,143.616 195.483,143.915 195.483 C 144.221 195.483,144.291 195.902,144.291 197.749 C 144.291 199.532,144.211 200.047,143.915 200.160 C 143.646 200.263,143.538 200.684,143.538 201.631 C 143.538 202.579,143.431 202.999,143.162 203.102 C 142.913 203.197,142.785 203.590,142.785 204.258 C 142.785 204.990,142.681 205.270,142.409 205.270 C 142.202 205.270,142.033 205.391,142.033 205.539 C 142.033 205.687,141.863 205.977,141.656 206.184 C 141.449 206.391,141.280 206.778,141.280 207.044 C 141.280 207.393,141.105 207.528,140.652 207.528 C 140.262 207.528,140.025 207.670,140.025 207.905 C 140.025 208.112,139.856 208.281,139.649 208.281 C 139.442 208.281,139.272 208.450,139.272 208.657 C 139.272 208.936,138.980 209.034,138.143 209.034 C 137.307 209.034,137.014 209.131,137.014 209.410 C 137.014 209.711,136.640 209.787,135.159 209.787 C 133.741 209.787,133.269 209.698,133.159 209.410 C 133.064 209.162,132.671 209.034,132.003 209.034 C 131.271 209.034,130.991 208.930,130.991 208.657 C 130.991 208.450,130.822 208.281,130.615 208.281 C 130.287 208.281,130.238 207.082,130.238 198.996 L 130.238 189.711 130.991 189.711 C 131.493 189.711,131.744 189.586,131.744 189.335 C 131.744 189.084,131.995 188.959,132.497 188.959 C 132.999 188.959,133.250 188.833,133.250 188.582 C 133.250 188.310,133.529 188.206,134.261 188.206 C 134.929 188.206,135.322 188.078,135.417 187.829 C 135.528 187.542,135.999 187.453,137.417 187.453 C 138.899 187.453,139.272 187.529,139.272 187.829 M188.959 187.829 C 188.959 188.080,189.210 188.206,189.711 188.206 C 190.213 188.206,190.464 188.331,190.464 188.582 C 190.464 188.789,190.634 188.959,190.841 188.959 C 191.048 188.959,191.217 189.087,191.217 189.243 C 191.217 189.400,191.499 189.790,191.844 190.110 C 192.189 190.430,192.472 190.926,192.472 191.213 C 192.472 191.500,192.641 191.800,192.848 191.879 C 193.123 191.985,193.225 192.417,193.225 193.484 C 193.225 194.448,193.353 195.073,193.601 195.322 C 194.122 195.843,194.116 199.670,193.593 200.362 C 193.390 200.630,193.225 201.326,193.225 201.909 C 193.225 202.492,193.109 203.008,192.968 203.055 C 192.826 203.102,192.639 203.592,192.552 204.142 C 192.462 204.709,192.138 205.384,191.805 205.697 C 191.482 206.001,191.217 206.537,191.217 206.889 C 191.217 207.432,191.104 207.528,190.464 207.528 C 189.962 207.528,189.711 207.654,189.711 207.905 C 189.711 208.112,189.542 208.281,189.335 208.281 C 189.128 208.281,188.959 208.450,188.959 208.657 C 188.959 208.936,188.666 209.034,187.829 209.034 C 186.993 209.034,186.700 209.131,186.700 209.410 C 186.700 209.711,186.324 209.787,184.818 209.787 C 183.312 209.787,182.936 209.711,182.936 209.410 C 182.936 209.131,182.643 209.034,181.807 209.034 C 180.970 209.034,180.678 208.936,180.678 208.657 C 180.678 208.450,180.508 208.281,180.301 208.281 C 179.973 208.281,179.925 207.082,179.925 198.996 L 179.925 189.711 180.678 189.711 C 181.179 189.711,181.430 189.586,181.430 189.335 C 181.430 189.084,181.681 188.959,182.183 188.959 C 182.685 188.959,182.936 188.833,182.936 188.582 C 182.936 188.310,183.216 188.206,183.948 188.206 C 184.615 188.206,185.008 188.078,185.104 187.829 C 185.214 187.542,185.686 187.453,187.103 187.453 C 188.585 187.453,188.959 187.529,188.959 187.829 " stroke="none" fill="#14142c" fill-rule="evenodd"></path><path id="path2" d="" stroke="none" fill="#0c9cc8" fill-rule="evenodd"></path><path id="path3" d="" stroke="none" fill="#0c407c" fill-rule="evenodd"></path><path id="path4" d="" stroke="none" fill="#0c442c" fill-rule="evenodd"></path></g></svg>