<?xml version="1.0" encoding="utf-8"?>
<!-- Generator: Adobe Illustrator 25.2.3, SVG Export Plug-In . SVG Version: 6.00 Build 0)  -->
<svg version="1.1" baseProfile="basic" id="Layer_1"
	 xmlns="http://www.w3.org/2000/svg" xmlns:xlink="http://www.w3.org/1999/xlink" x="0px" y="0px" viewBox="0 0 471.6 289.3"
	 xml:space="preserve">
<style type="text/css">
	.st0{fill:#00C4C4;}
	.st1{fill:#11142D;}
	.st2{fill:url(#SVGID_1_);}
	.st3{fill:#48C0C1;}
	.st4{fill:#00A59D;}
	.st5{fill:#11132D;}
</style>
<g id="Layer_2_1_">
	<g id="Logos">
		<path class="st0" d="M427.4,178.6c0.1,2.4-0.8,4.8-2.6,6.4c-3.5,3.1-8.8,3.1-12.4,0c-3.5-3.5-3.5-9.2,0-12.8
			c3.5-3.1,8.8-3.1,12.4,0C426.6,173.9,427.6,176.2,427.4,178.6z"/>
		<path class="st1" d="M167.1,50.4c-7.5-1.4-85.9-17.5-85.9-17.5s-7.5-1.7-8.8,4.5c0,0-19.6,64.4-29,133.1c0,0-1,7.6,4.2,8.1
			S161.2,192,161.2,192s5.6-0.8,6.4-6.1s-2-54.5,6-128.1C173.6,57.8,174.6,51.8,167.1,50.4z M99.4,51.8c-3.1,0-5.7-2.5-5.7-5.7
			s2.5-5.7,5.7-5.7s5.7,2.5,5.7,5.7C105.1,49.3,102.5,51.8,99.4,51.8C99.4,51.8,99.4,51.8,99.4,51.8z M146.6,60.1
			c-3.1,0-5.7-2.5-5.7-5.7c0-3.1,2.5-5.7,5.7-5.7s5.7,2.5,5.7,5.7c0,0,0,0,0,0C152.3,57.6,149.8,60.1,146.6,60.1z"/>
		<path class="st1" d="M131.6,0.4c14.2,2.6,23.7,16.2,21.1,30.4l-3.9,21.9c-0.2,1.2-1.3,1.9-2.5,1.7c0,0,0,0,0,0l0,0
			c-1.1-0.2-1.9-1.3-1.7-2.4l3.9-21.9c2.3-11.9-5.4-23.4-17.3-25.8s-23.4,5.4-25.8,17.3c0,0.2-0.1,0.5-0.1,0.7l-3.9,21.9
			c-0.2,1.2-1.3,1.9-2.5,1.7c-1.2-0.2-1.9-1.3-1.7-2.5l3.9-21.9C103.7,7.3,117.3-2.1,131.6,0.4"/>
		
			<linearGradient id="SVGID_1_" gradientUnits="userSpaceOnUse" x1="31.49" y1="89.926" x2="166.29" y2="89.926" gradientTransform="matrix(1 0 0 -1 0 287.976)">
			<stop  offset="0" style="stop-color:#FFFFFF;stop-opacity:0.2"/>
			<stop  offset="1" style="stop-color:#000000;stop-opacity:0.2"/>
		</linearGradient>
		<ellipse class="st2" cx="98.9" cy="198.1" rx="67.4" ry="4"/>
		<path class="st3" d="M151.5,169.3c-2.5-3.3-10.1-11.6-15.5-19.5c-4.1-6-7-11.8-5.6-15.3c1.8-4.4,16.8,1.4,20.2-0.3
			c5-2,4.8-9.4-3.8-24.6c-4.2-7.3-15-6.7-15-6.7s-11.4-17.7-20.5-29c-6.4-7.9-17.2-8.2-23.1-7.7c-0.9,0.1-1.9,0.2-2.7,0.4
			c-0.3,0.1-0.5,0.4-0.4,0.7c0,0.1,0.1,0.2,0.2,0.3c18.9,10.8,27.8,24,27.9,24.1c0.4,0.6-17.6-13.4-23.7-14.8
			c-1.7-0.4-3.8,0.2-5.8,1.3C78.5,81.1,73,87.2,71,89.6c-0.5,0.6-0.5,1.6,0.2,2.1c0.1,0.1,0.1,0.1,0.2,0.1c1.7,0.9,3.7,1.3,5.6,1.2
			c9.7-0.7,18.7-2,30.6,2.7c7.8,3.1,10,7.8,10.3,11.3c0.1,2.8-0.9,5.5-2.8,7.6c-1,1.2-2.1,0.8-3.8-0.3c-4.7-3.1-16.9-14-36.8-15.3
			c-19.5-1.3-35,13.8-35,13.8s-0.7-6-4.4-6.4c-8.2-0.8-5.8,13.1-3.8,13.6c1.3,0.3,1.1,6-2.8,11.1c-2.9,3.7-7,6.3-11.6,7.3
			c-15.4,3.6-18.6,7.7-16.4,11.2c1,1.6,2.5,1.7,4.2,1.3c2.2-0.5,4.2-1.8,5.6-3.6c2.4-3.2,6.3-4.9,10.3-4.4c2.5,0.4,5,1,7.4,1.9
			c3,1.2,6.3,1.3,9.3,0.4c12.5-3.6,24.3-8.1,37.7-8.4c24.4-0.6,42.8,10.8,55.9,22.7c11.4,10.4,14.4,16.3,18.3,20
			C157.7,187.6,158.8,179.2,151.5,169.3z M77,93.1l0.2-0.1L77,93.1z M82.4,91.2c0.6-0.2,1.3-0.4,2-0.5C83.8,90.8,83.1,91,82.4,91.2
			L82.4,91.2z"/>
		<path class="st0" d="M28.6,131.3c9.4-13,39.4-15,69.9,1.2c14.1,7.5,25.4,17.3,32.6,27.2c11.4,10.4,14.4,16.3,18.3,20
			c8.4,7.9,9.4-0.5,2.1-10.4c-2.5-3.4-10.1-11.6-15.5-19.5c-1.2-1.2-2.2-2.4-3.2-3.7c-6.1-8.4-7.2-17.9-2.4-21.4s14,1.2,20.1,9.5
			c5-1.9,4.8-9.4-3.8-24.6c-4.2-7.3-15-6.7-15-6.7s-11.4-17.7-20.5-29c-6.4-7.9-17.2-8.2-23.1-7.7c4.4,0.5,10.5,4,15.8,9.5
			s8.7,11.6,9.2,16.1c0.4,0.6-17.6-13.4-23.7-14.8c-1.7-0.4-3.8,0.2-5.8,1.3C78.5,81.1,73,87.2,71,89.6c-0.5,0.6-0.5,1.6,0.2,2.1
			c0.1,0.1,0.1,0.1,0.2,0.2c1.7,0.9,3.7,1.3,5.6,1.2c0,0,14.2-6.3,25.2-2.8c3.4,0.7,16.1,7.6,15.8,16.9c0.1,2.8-0.9,5.5-2.8,7.6
			c-1,1.2-2.1,0.9-3.8-0.3c-4.7-3.1-16.9-14-36.8-15.3c-19.5-1.3-35,13.8-35,13.8s-0.7-6-4.4-6.4c-8.2-0.8-5.8,13.1-3.8,13.6
			C32.7,120.4,32.5,126.2,28.6,131.3z"/>
		<path class="st4" d="M0.6,149.7c1,1.6,2.5,1.7,4.2,1.3c2.2-0.5,4.2-1.8,5.6-3.6c2.4-3.2,6.3-4.9,10.3-4.4c2.5,0.4,5,1,7.4,1.9
			c3,1.1,6.3,1.3,9.3,0.5c12.5-3.6,24.3-8.1,37.7-8.5c24.4-0.6,42.8,10.8,55.9,22.7c-7.2-10-18.5-19.8-32.6-27.2
			c-30.4-16.2-60.4-14.2-69.9-1.2c-2.9,3.7-7,6.3-11.6,7.3C1.6,142.1-1.6,146.3,0.6,149.7z"/>
		<path class="st4" d="M132.8,146.1c1,1.3,2,2.6,3.2,3.7c-4.1-6-7-11.8-5.6-15.3c1.8-4.4,16.8,1.4,20.2-0.3
			c-6.1-8.4-15.4-13-20.1-9.5S126.7,137.8,132.8,146.1z"/>
		<path class="st4" d="M77,93.1c9.7-0.7,18.7-2,30.6,2.7c7.8,3.1,10,7.8,10.3,11.3c0.3-9.2-12.4-16.1-15.8-16.9
			C91.2,86.8,77,93.1,77,93.1z"/>
		<path class="st4" d="M85.2,67.8c18.9,10.8,27.8,24,27.9,24.1c-0.4-4.4-3.8-10.6-9.2-16.1s-11.4-8.9-15.8-9.5
			c-0.9,0.1-1.9,0.2-2.7,0.4c-0.3,0.1-0.5,0.3-0.4,0.7C84.9,67.5,85,67.7,85.2,67.8z"/>
		<g>
			<path class="st5" d="M257.8,78c-5.7-2.4-12.3-4.1-18.6-4.1c-7.4,0-10.9,2.7-10.9,6.7c0,5,4.8,6.9,13.4,9.7
				c12.7,4,24.5,8.3,24.5,22.7c0,16.5-12.9,24.7-31,24.7c-12.2,0-24.7-3.7-30-7l7-13.1c5.2,2.7,14.1,5.6,22.7,5.6
				c8.2,0,12.3-2.8,12.3-8.4c0-5.4-4.9-8.1-12.5-10.2c-14.6-4.1-25.5-7.9-25.5-22.3c0-15,13.4-22.6,29.6-22.6
				c8.5,0,18.6,2.2,25.5,5.6L257.8,78z"/>
		</g>
		<g>
			<path class="st5" d="M293.4,86.7c4.4-3.4,9.3-7,18.2-7c13.1,0,18.4,6.9,18.4,18.2v38.4h-17.8v-35.5c0-5.8-2.1-8-7.2-8
				c-4.4,0-8.5,2.4-11.3,4.4v39.1h-17.9V81.9c0-6.4-0.4-15.1-1.7-24.6c6.4-0.3,13-1.2,19.6-2.2v21.6c0,2.7-0.3,6.6-1.1,9.8
				L293.4,86.7z"/>
		</g>
		<g>
			<path class="st5" d="M339.4,108.4c0-18,13.4-28.6,31.7-28.6c18,0,30.2,9.9,30.2,27c0,20.1-11.4,31-31.3,31
				C350.2,137.7,339.4,125.7,339.4,108.4z M382.9,109.6c0-9.4-3.4-17.6-12.6-17.6c-8.4,0-12.5,6.4-12.5,15.2
				c0,8.7,3.1,17.9,12.9,17.9C379.4,125.2,382.9,118.2,382.9,109.6z"/>
		</g>
		<g>
			<path class="st5" d="M428.6,159.3h-17.9v-57.8c-0.1-5.9-0.9-12.2-2.1-19.8c3.8-0.1,12.9-0.9,15.9-1.3c0.1,1.6,1.1,4.9,1.5,6.1
				l0.8,0.2c5.3-4.1,10-6.9,18.6-6.9c17.1,0,22.8,12.2,22.8,26.4c0,17.9-11.1,31.4-30.8,31.4c-2.8,0-5.8-0.3-8.8-1.2V159.3z
				 M428.5,123.7c2,1.3,4.5,2,7.2,2c9.6,0,13.5-7.4,13.5-17.3c0-11.4-4.2-15.6-10.7-15.6c-4.9,0-9.4,3.6-10,3.7V123.7z"/>
		</g>
		<g>
			<path class="st5" d="M231.3,150.9h9.2v36.3h-9.2v-14.6h-15.6v14.6h-9.2v-36.3h9.2v14.5h15.6V150.9z"/>
		</g>
		<g>
			<path class="st5" d="M245.8,173.7c0-8.7,6.6-13.8,15.7-13.8c8.9,0,14.9,4.8,14.9,13c0,9.7-5.6,14.9-15.5,14.9
				C251.2,187.8,245.8,182,245.8,173.7z M267.3,174.3c0-4.5-1.7-8.5-6.2-8.5c-4.1,0-6.2,3.1-6.2,7.3c0,4.2,1.5,8.6,6.4,8.6
				C265.6,181.8,267.3,178.5,267.3,174.3z"/>
		</g>
		<g>
			<path class="st5" d="M290.1,198.2h-8.9v-27.9c-0.1-2.9-0.5-5.9-1-9.5c1.9-0.1,6.4-0.4,7.9-0.6c0.1,0.8,0.5,2.4,0.7,2.9l0.4,0.1
				c2.6-2,4.9-3.3,9.2-3.3c8.5,0,11.3,5.9,11.3,12.7c0,8.6-5.5,15.1-15.2,15.1c-1.4,0-2.9-0.2-4.3-0.6V198.2z M290,181.1
				c1,0.6,2.2,1,3.5,1c4.7,0,6.7-3.6,6.7-8.4c0-5.5-2.1-7.5-5.3-7.5c-2.4,0-4.7,1.7-4.9,1.8V181.1z"/>
		</g>
		<g>
			<path class="st5" d="M323.4,198.2h-8.9v-27.9c-0.1-2.9-0.5-5.9-1-9.5c1.9-0.1,6.4-0.4,7.9-0.6c0.1,0.8,0.5,2.4,0.7,2.9l0.4,0.1
				c2.6-2,4.9-3.3,9.2-3.3c8.5,0,11.3,5.9,11.3,12.7c0,8.6-5.5,15.1-15.2,15.1c-1.4,0-2.9-0.2-4.3-0.6V198.2z M323.3,181.1
				c1,0.6,2.2,1,3.5,1c4.7,0,6.7-3.6,6.7-8.4c0-5.5-2.1-7.5-5.3-7.5c-2.4,0-4.7,1.7-4.9,1.8V181.1z"/>
		</g>
		<g>
			<path class="st5" d="M371.4,179.4l2.5,5c-3.7,2.1-7.9,3.4-12.3,3.4c-9.3,0-15.1-5.1-15.1-13.8c0-8.2,5.4-14.1,14.9-14.1
				c9,0,12.9,5.7,12.9,13.3l-2.3,1.6l-16.2,0.7c0.3,3.3,2,6.3,7.2,6.3C365.7,181.8,368.6,180.8,371.4,179.4z M365.8,170.4
				c-0.1-3.4-1.6-5.2-4.6-5.2c-3.1,0-5.2,2.2-5.6,5.7L365.8,170.4z"/>
		</g>
		<g>
			<path class="st5" d="M396.3,167.3c-1-0.3-2.6-0.6-3.7-0.6c-2,0-3.3,0.6-4.9,1.7v18.8h-8.9v-16.8c-0.1-2.1-0.4-5.5-1-9.5
				c2.2-0.1,4.6-0.3,7.7-0.6c0.1,0.8,0.5,2,0.9,3l0.3,0.1c2.4-2.4,4.5-3.4,7.1-3.4c1.6,0,3,0.2,4,0.6L396.3,167.3z"/>
		</g>
	</g>
</g>
</svg>
